<svg xmlns="http://www.w3.org/2000/svg" width="93" height="84" fill="none"><path fill="#FFAE00" d="M31.702 71.154a7.3 7.3 0 0 0 1.856 1.215q.279.135.582.257c1.676.686 3.483.994 5.292.903h.09a5.1 5.1 0 0 0 2.299-.686c.498-.303.874-.771 1.06-1.323q.114-.325.299-.614c.384-.57.85-1.082 1.381-1.517 1.17-1.025 2.831-2.145 4.705-3.49 5.134-3.676 11.875-9.031 14.656-18.77 2.664-9.32 1.048-21.818-10.588-25.638l-.27-.085c-11.541-3.649-22.915 1.905-26.536 14.728-3.464 12.259 3.327 22.888 4.434 29.38a6.65 6.65 0 0 1-.095 3.243l-.027.094c-.23.817.135 1.612.862 2.303"/><path stroke="#fff" stroke-linecap="round" stroke-linejoin="round" stroke-width="3.06" d="M33.133 74.55s6.525-26.73 2.122-28.898c-4.402-2.167-4.998 4.371-2.045 6.222 3.974 2.497 10.882 3.337 12.006-1.354.876-3.653-3.707-4.642-4.93-.863-.827 2.565.717 4.922 4.036 5.712 5.617 1.332 9.563-.452 7.816-4.515-.957-2.226-3.915-1.287-4.542 1.549-.628 2.835-8.787 23.786-8.787 23.786" opacity=".75"/><path fill="#3B3B4C" d="m33.608 82.876-.452-.136a6.867 6.867 0 0 1-4.714-8.488s1.445-8.38 2.493-8.737 13.41 3.205 13.68 3.91c.271.704-2.496 8.732-2.496 8.732a6.87 6.87 0 0 1-8.511 4.719"/><path fill="#AAAAAF" d="m28.848 69.706.032-.192a.97.97 0 0 1 1.117-.798l13.807 2.298a.97.97 0 0 1 .798 1.117l-.032.192a.97.97 0 0 1-1.117.798l-13.807-2.298a.97.97 0 0 1-.798-1.117M28.05 72.78l.033-.191a.97.97 0 0 1 1.116-.799l13.808 2.293a.97.97 0 0 1 .799 1.117l-.032.192a.97.97 0 0 1-1.117.798L28.85 73.897a.97.97 0 0 1-.798-1.117M27.317 75.878l.032-.192a.97.97 0 0 1 1.117-.798l13.807 2.298a.97.97 0 0 1 .798 1.117l-.032.192a.97.97 0 0 1-1.117.798l-13.807-2.299a.97.97 0 0 1-.798-1.116"/><g fill="#fff" opacity=".65"><path d="M41.283 29.592c.836-.19 1.445-.407 1.996-.542.44-.127.897-.184 1.355-.167a1.95 1.95 0 1 0 .334-3.888h-.05a8 8 0 0 0-2.6.298c-.737.194-1.391.425-1.852.529h-.027a1.932 1.932 0 0 0 .844 3.77M33.26 40.135a15.6 15.6 0 0 1 1.323-4.642 13.8 13.8 0 0 1 2.808-3.856 1.895 1.895 0 0 0-2.65-2.71 17.7 17.7 0 0 0-3.612 4.882 19.5 19.5 0 0 0-1.711 5.77 1.933 1.933 0 0 0 3.824.556z" opacity=".65"/></g><path fill="#E84E19" d="M49.27 65.89c5.134-3.676 11.876-9.031 14.657-18.77 2.664-9.32 1.048-21.818-10.588-25.638l-.271-.085c11.4 23.479 6.746 29.746-3.797 44.492" opacity=".12"/><path fill="#fff" d="m70.09 50.375 21.447 1.906a.634.634 0 0 0 .145-1.26l-21.32-2.99a1.183 1.183 0 0 0-.33 2.34zM71.607 34.649l20.197-5.288a.5.5 0 0 0 .356-.605.49.49 0 0 0-.573-.36L71.083 32.35a1.18 1.18 0 0 0 .452 2.317zM65.656 21.491l10.015-10.949a.458.458 0 1 0-.646-.65l-11.03 9.933a1.183 1.183 0 0 0 1.58 1.757.5.5 0 0 0 .081-.09M53.375 15.098 55.389.961a.51.51 0 0 0-.452-.578.515.515 0 0 0-.569.388L51.04 14.656a1.183 1.183 0 0 0 2.299.55q.021-.053.036-.108M41.423 14.412 38.552.414a.489.489 0 0 0-.967.15l1.504 14.218a1.18 1.18 0 1 0 2.348-.249 1 1 0 0 0-.014-.121M28.528 19.771 16.256 8.826a.463.463 0 0 0-.646.664l11.288 11.97a1.18 1.18 0 0 0 1.72-1.617.6.6 0 0 1-.09-.072M22.956 32.391.511 24.264a.452.452 0 0 0-.325.812l21.899 9.482a1.183 1.183 0 0 0 .939-2.167z"/></svg>