<svg xmlns="http://www.w3.org/2000/svg" width="96" height="81" fill="none"><path fill="#3B3B4D" d="M89.703 14.927c4.53 3.413 7.711 8.99 5.662 12.663-1.534 2.715-19.274 38.06-28.32 44.176-10.633 7.2-53.977 8.279-54.862 8.324C9.865 80.203 1.075 67.28.308 58.986c-.674-7.232 2.792-14.38 3.027-15.422.236-1.044 22.155 2.84 22.155 2.84l16.9 20.95z"/><path fill="#545466" d="M2.082 43.174c-7.67 21.615 8.145 34.68 10.637 34.497 28.332-1.912 42.532-3.353 48.908-6.299s36.12-39.602 31.936-50.86C90.28 11.631 69.091 0 69.091 0S55.629 39.984 46.94 40.406 3.68 38.673 2.082 43.174"/><path fill="#fff" d="M69.756 4.7c5.552 5.405 21.25 13.656 21.104 17.532-.491 11.648-23.831 42.54-25.098 40.3S50.673 41.71 52.434 40.163C57.71 35.484 69.756 4.7 69.756 4.7"/><path fill="#3B3B4D" d="M47.098 43.186c4.411 12.2 13.392 20.382 11.874 22.321s-29.959 7.626-31.818 5.625c-1.858-2-12.447-27.155-11.554-28.003s31.497.057 31.497.057M15.909 52.577c1.391 6.6 5.336 11.327 3.721 12.537S9.046 68.158 8.185 67.309c-.86-.848-4.582-10.551-3.007-14.204.657-1.55 9.582-5.982 10.73-.528"/></svg>