<svg xmlns="http://www.w3.org/2000/svg" width="120" height="127" fill="none"><path fill="#303646" d="M90.617 75.62c6.127-19.966 4.722-38.107-3.137-40.519-7.86-2.412-19.198 11.819-25.325 31.785s-4.723 38.107 3.136 40.519c7.86 2.412 19.198-11.819 25.326-31.785"/><path fill="#fff" d="M88.275 74.903C94.403 54.937 93.46 36.937 86.17 34.7S68 46.834 61.874 66.8s-5.184 37.966 2.106 40.203 18.168-12.134 24.295-32.1"/><path fill="#CD2B31" d="M86.075 74.228c5.415-17.647 4.582-33.555-1.862-35.533-6.444-1.977-16.057 10.725-21.473 28.372-5.415 17.647-4.582 33.555 1.862 35.533 6.443 1.977 16.057-10.725 21.472-28.372"/><path fill="#fff" d="M83.336 73.383c4.408-14.365 3.73-27.316-1.516-28.925s-13.072 8.73-17.48 23.096-3.73 27.316 1.515 28.926c5.246 1.61 13.072-8.731 17.48-23.097"/><path fill="#CD2B31" d="M81.557 72.085c3.587-11.666 3.04-22.185-1.22-23.494s-10.62 7.085-14.207 18.751c-3.586 11.666-3.04 22.185 1.22 23.494s10.621-7.086 14.207-18.751"/><path fill="#fff" d="M77.827 71.696c2.394-7.803 2.025-14.838-.825-15.712s-7.1 4.742-9.495 12.545-2.026 14.837.824 15.712c2.85.874 7.101-4.742 9.496-12.545"/><path fill="#CD2B31" d="M75.98 70.37c1.209-3.934 1.024-7.483-.413-7.924s-3.584 2.39-4.793 6.325-1.025 7.483.412 7.925c1.438.442 3.584-2.39 4.793-6.325"/><path fill="#BAB3B4" d="M68.661 64.825c-.864 1.098-3.459 4.063-3.402 4.565s3.413-.5 3.579-1.36c.165-.861-.177-3.205-.177-3.205"/><path fill="#fff" d="M6.886 36.429c.317-.125 4.186-1.517 5.059-1.324a3.66 3.66 0 0 1 1.573.907c-2.504 1.257-4.05 2.03-5.19 1.392-.593-.335-1.043-.554-1.295-.7-.252-.147-.3-.213-.147-.275"/><path fill="#1F1F39" d="M6.886 36.429c.317-.125 4.186-1.517 5.059-1.324-.244.51-3.54 2.239-4.912 1.599-.23-.138-.3-.213-.147-.275" opacity=".09"/><path fill="#fff" d="M5.377 35.526c.313-.127 4.186-1.517 5.055-1.326.605.174 1.155.5 1.598.947-2.505 1.257-4.069 2.009-5.214 1.355-.59-.34-1.039-.554-1.291-.701s-.301-.216-.148-.275"/><path fill="#1F1F39" d="M5.377 35.526c.313-.127 4.186-1.517 5.055-1.326-.244.51-2.059 1.712-4.907 1.6-.237-.135-.301-.215-.148-.274" opacity=".09"/><path fill="#fff" d="M3.67 34.453c.66-.042 1.309-.191 1.921-.441l.026-.008c1.295-.506 2.67-.972 3.107-.877.65.21 1.238.58 1.709 1.077-2.503 1.26-4.179 1.882-5.326 1.22-.59-.339-1.04-.554-1.292-.7l-.078-.048c-.171-.104-.203-.17-.068-.223"/><path fill="#1F1F39" d="M3.67 34.453c.66-.042 1.309-.191 1.921-.441l.026-.008c1.326-.495 2.722-.948 3.158-.853-.244.51-2.71 1.59-4.91 1.602l-.127-.074c-.172-.107-.204-.173-.069-.226" opacity=".09"/><path fill="#fff" d="M1.973 33.404c.317-.125 4.186-1.517 5.058-1.327a4.1 4.1 0 0 1 1.693 1.05c-2.504 1.257-4.167 1.906-5.309 1.251-.593-.334-1.043-.553-1.295-.7s-.301-.215-.147-.274"/><path fill="#1F1F39" d="M1.973 33.404c.317-.125 4.186-1.517 5.058-1.327-.244.51-3.033.83-4.91 1.601-.23-.137-.302-.215-.148-.274" opacity=".23"/><path fill="#543237" d="M5.877 31.118c.094.249.253.468.46.635 1.205 1.07 61.04 37.224 61.191 37.445.011.037.079.036.16.016q.172-.046.32-.142c.502-.296 1.115-.97.446-1.569a1.5 1.5 0 0 0-.193-.148S8.717 30.166 7.54 30.04c-.932-.1-1.895.357-1.664 1.077"/><path fill="#fff" d="M11.806 28.309c.03.337.545 4.417 1.11 5.108.417.454.94.796 1.524.993-.01-2.791-.014-4.535-1.11-5.252-.569-.373-.964-.676-1.21-.83-.247-.152-.333-.186-.314-.02"/><path fill="#1F1F39" d="M11.806 28.308c.03.338.545 4.418 1.11 5.108.345-.44.392-4.171-.8-5.098-.23-.154-.329-.176-.31-.01" opacity=".09"/><path fill="#fff" d="M10.314 27.369c.031.338.545 4.417 1.11 5.108.43.46.97.801 1.568.992-.01-2.791-.054-4.535-1.156-5.258-.569-.374-.964-.676-1.21-.83-.247-.152-.33-.175-.312-.012"/><path fill="#1F1F39" d="M10.314 27.369c.031.338.546 4.417 1.11 5.108.346-.44.592-2.611-.8-5.102-.229-.147-.327-.169-.31-.006" opacity=".09"/><path fill="#fff" d="M8.582 26.335c.264.605.426 1.25.481 1.91l.01.028c.135 1.38.342 2.819.627 3.167a4.1 4.1 0 0 0 1.732 1.035c-.01-2.792-.218-4.577-1.32-5.3-.57-.378-.966-.68-1.207-.83l-.079-.049c-.184-.107-.257-.11-.244.038"/><path fill="#1F1F39" d="M8.582 26.334c.264.606.426 1.252.481 1.91l.01.03c.159 1.404.388 2.852.672 3.196.345-.44.187-3.139-.8-5.098l-.121-.083c-.182-.1-.255-.102-.242.045" opacity=".09"/><path fill="#fff" d="M6.877 25.296c.032.342.546 4.422 1.114 5.107.474.48 1.058.838 1.702 1.04-.01-2.792-.196-4.58-1.29-5.305-.57-.374-.965-.677-1.211-.83s-.329-.175-.315-.012"/><path fill="#1F1F39" d="M6.877 25.296c.032.342.546 4.421 1.114 5.107.345-.44-.636-3.076-.8-5.099-.23-.15-.328-.171-.314-.008" opacity=".23"/><path fill="#1F1F39" d="M5.877 31.118c.094.249.253.468.46.635 1.205 1.07 61.04 37.224 61.191 37.445.044.067.251.012.481-.126-7.01-4.495-56.568-34.783-62.132-37.954" opacity=".47"/><path fill="#fff" d="M65.11 69.62c-.062.729 7.537 2.074 8.132 1.665l.025-.007c.407-.463-4.218-6.53-4.602-6.442-.384.09-.562 2.223-1.109 3.22l-.018.006c-.55.977-2.39 1.042-2.429 1.557"/><path fill="#1F1F39" d="M65.109 69.62c-.062.728 7.538 2.074 8.133 1.665-2.239-1.754-4.423-2.898-5.703-3.22-.55.974-2.391 1.04-2.43 1.554" opacity=".22"/></svg>