<svg xmlns="http://www.w3.org/2000/svg" width="76" height="93" fill="none"><path fill="#E0E0E0" d="m59.967 62.765-6.587-1.368 8.338-40.11a8.8 8.8 0 0 0-1.3-6.037C49.92.718 32.844 6.62 30.227 19.177l-7.504 35.85-6.587-1.375 8.413-40.37a14.37 14.37 0 0 1 7.445-9.83c21.21-10.93 39.01 6.062 35.384 23.479z"/><path fill="#263238" d="M59.967 62.765s.042-.25.142-.717.233-1.176.417-2.085l1.667-7.979c.717-3.46 1.584-7.687 2.593-12.597l1.668-7.854c.517-2.785 1.375-5.703 1.409-8.855.05-3.299-.652-6.566-2.051-9.554-.184-.384-.359-.784-.55-1.167l-.668-1.126a22 22 0 0 0-1.492-2.176c-.267-.367-.584-.684-.875-1.025-.292-.342-.576-.692-.917-.993a20 20 0 0 0-2.068-1.8 22.3 22.3 0 0 0-4.82-2.877l-1.341-.5-.76-.25-.7-.184L50.212.66c-.483-.108-.967-.158-1.45-.241a22.04 22.04 0 0 0-11.873 1.517 22.14 22.14 0 0 0-12.506 13.882c-.608 2.126-1 4.352-1.476 6.57-1.85 8.896-3.776 18.109-5.736 27.513a598 598 0 0 0-.783 3.76l-.125-.191 6.586 1.375-.183.125a22940 22940 0 0 1 4.352-20.843q1.059-5.078 2.092-10.005l1.018-4.886a17.5 17.5 0 0 1 1.734-4.619 15.93 15.93 0 0 1 6.937-6.436c.358-.159.7-.35 1.075-.475l1.1-.384q1.108-.333 2.252-.509 1.136-.172 2.284-.183c.375 0 .759 0 1.134.05h.559l.558.092c1.468.2 2.9.607 4.252 1.209a16.8 16.8 0 0 1 3.644 2.284 15.9 15.9 0 0 1 4.694 6.728 15.1 15.1 0 0 1 .775 7.67l-.15.926c-.058.3-.125.6-.184.9l-.375 1.785q-.375 1.76-.725 3.46c-.95 4.519-1.826 8.68-2.61 12.423-1.584 7.503-2.818 13.34-3.635 17.25l-.041-.059 5.002 1.06 1.217.266.4.092-.391-.075-1.21-.234-5.002-1.017v-.05l3.552-17.258c.775-3.752 1.668-7.913 2.576-12.44.234-1.125.476-2.284.717-3.46.117-.583.242-1.184.367-1.776.067-.3.125-.6.192-.908s.092-.609.142-.91c.4-2.542.132-5.145-.776-7.553a15.66 15.66 0 0 0-4.635-6.611 16.6 16.6 0 0 0-3.602-2.243 15.7 15.7 0 0 0-4.169-1.184l-.55-.083h-.559c-.367 0-.733-.05-1.108 0a16 16 0 0 0-4.453.683l-1.084.384q-.538.202-1.05.467a15.56 15.56 0 0 0-6.803 6.328 16.7 16.7 0 0 0-1.668 4.527q-.5 2.426-1.017 4.886L27.41 34.243l-4.344 20.843v.158h-.159l-6.586-1.375h-.15v-.159c.258-1.242.517-2.5.784-3.76 1.967-9.43 3.885-18.642 5.744-27.513.475-2.226.834-4.436 1.484-6.603a24 24 0 0 1 2.877-5.987 22.5 22.5 0 0 1 9.854-8.07A22.34 22.34 0 0 1 48.937.25c.492.083.984.142 1.467.242l1.668.433.892.284 1.334.5.617.258a22.4 22.4 0 0 1 4.577 2.777q1.097.85 2.084 1.826.395.43.75.892c.292.35.618.667.876 1.034a23 23 0 0 1 1.517 2.209l.667 1.134c.2.392.367.834.56 1.184a21.95 21.95 0 0 1 2.042 9.663c0 3.185-.909 6.111-1.434 8.904-.526 2.793-1.142 5.42-1.668 7.879-1.034 4.91-1.934 9.171-2.66 12.598-.725 3.427-1.3 6.128-1.667 7.945l-.442 2.06c-.091.467-.15.692-.15.692"/><path fill="#455A64" d="m13.295 28.68 58.84 12.26a3.12 3.12 0 0 1 2.417 3.688l-9.296 44.614a2.834 2.834 0 0 1-3.353 2.197L2.785 79.121z"/><path fill="#000" d="m13.326 28.727 58.53 12.196a3.434 3.434 0 0 1 2.663 4.063L65.352 88.98a3.15 3.15 0 0 1-3.728 2.442L2.816 79.17z" opacity=".3"/><path fill="#455A64" d="M13.796 28.786 64.548 39.36a3.385 3.385 0 0 1 2.623 4.004l-8.974 43.071a4.17 4.17 0 0 1-4.931 3.23L3.428 79.284A3.5 3.5 0 0 1 .714 75.14l9.11-43.724a3.385 3.385 0 0 1 3.972-2.63"/><path fill="#000" d="M42.825 56.537a7.195 7.195 0 0 0-5.786-8.554 7.287 7.287 0 0 0-8.287 5.56 7.18 7.18 0 0 0 3.71 7.871l-6.629 8.763 12.098 2.751-1.667-10.714a7.17 7.17 0 0 0 6.561-5.677" opacity=".3"/><path fill="#263238" d="M58.4 85.793c-.084 0 1.717-8.805 4.018-19.627s4.244-19.592 4.327-19.576c.083.017-1.718 8.813-4.019 19.652-2.3 10.838-4.243 19.567-4.327 19.55"/><path fill="#fff" d="M54.298 38.845c0 .083-7.78-1.36-17.334-3.218-9.554-1.86-17.3-3.435-17.283-3.519.016-.083 7.778 1.35 17.342 3.21s17.291 3.41 17.274 3.527M27.726 57.345s-.1-.166-.2-.5a6.5 6.5 0 0 1-.267-1.442 8.16 8.16 0 0 1 1.043-4.694 8.25 8.25 0 0 1 3.526-3.269q.667-.319 1.384-.5.261-.081.534-.075c0 .058-.742.209-1.818.776a8.34 8.34 0 0 0-4.443 7.745c.041 1.217.3 1.943.241 1.96M29.81 61.239c-.058.067-.441-.192-.833-.575-.392-.384-.692-.742-.634-.834.059-.092.442.2.834.575.392.376.692.834.634.834M47.61 1.827s-.433 0-1.216-.084a21 21 0 0 0-3.335.059A19.34 19.34 0 0 0 26.642 14.4a21 21 0 0 0-.908 3.184c-.15.767-.217 1.2-.242 1.2a1.3 1.3 0 0 1 0-.316c0-.208 0-.517.108-.909.178-1.101.457-2.184.834-3.235A19.08 19.08 0 0 1 43.059 1.577c1.11-.09 2.227-.073 3.335.05.392 0 .692.1.9.125q.164.015.317.075M24.1 24.17a5.7 5.7 0 0 1 .25-1.867c.083-.624.269-1.23.55-1.792a5.5 5.5 0 0 1-.242 1.859 5.6 5.6 0 0 1-.558 1.8"/></svg>