<svg xmlns="http://www.w3.org/2000/svg" width="322" height="343" fill="none"><path fill="#455A64" d="M14.006 299.921.03 318.896l23.532 17.512c1.555-2.333-7.287-15.926-7.287-15.926l9.457-11.789z"/><path fill="#fff" d="M9.79 314.059a1.186 1.186 0 0 0-1.477.598 1.16 1.16 0 0 0 .584 1.478 1.26 1.26 0 0 0 1.555-.646 1.195 1.195 0 0 0-.778-1.469"/><path fill="#263238" d="m0 318.942 1.485-2.037 21.985 17.699s.7 1.244 0 1.89zM16.79 320.653c-.086.117-.7-.257-1.556-.311-.855-.054-1.5.21-1.555.086-.055-.125.599-.661 1.61-.584 1.01.078 1.563.724 1.5.809M18.462 323.515c-.063.132-.7-.047-1.455.148-.754.194-1.244.63-1.36.536s.303-.777 1.244-1.018c.94-.242 1.648.225 1.57.334M17.66 327.512c-.124-.054.148-.778.91-1.159s1.485-.256 1.462-.124-.607.218-1.22.568c-.615.35-1.027.785-1.152.715M18.61 317.729c-.133.07-.537-.482-1.222-.917s-1.337-.615-1.33-.778c.008-.163.778-.195 1.603.334.824.529 1.073 1.315.948 1.361M70.898 220.492c.42 2.379 1.09 22.622 1.517 33.299.428 10.677-.638 15.926-1.859 18.321-1.22 2.395-47.265 36.324-50.773 44.451L8.12 307.161s17.108-30.71 24.402-36.293c7.295-5.584 21.331-10.708 21.331-10.708l-3.989-58.472 19.122-1.042z"/><path fill="#455A64" d="m28.104 318.686-.202 23.539 29.325.405c-.132-2.8-15.226-8.64-15.226-8.64l.777-15.094z"/><path fill="#fff" d="M32.949 332.629a1.197 1.197 0 0 0-.848 1.353 1.16 1.16 0 0 0 1.338.855 1.266 1.266 0 0 0 .886-1.438 1.187 1.187 0 0 0-1.485-.731"/><path fill="#263238" d="M27.895 342.311v-2.528l28.19 1.462s1.29.599 1.127 1.517zM42.452 333.881c0 .148-.723.202-1.431.653s-1.096 1.042-1.229.988c-.132-.055.094-.887.965-1.416.87-.528 1.757-.357 1.695-.225M45.563 335.226c0 .14-.599.374-1.089.972-.49.599-.645 1.245-.778 1.229-.132-.015-.225-.816.405-1.555s1.462-.809 1.462-.646M47.235 338.904c-.132 0-.32-.692.054-1.469.373-.778 1.058-1.081 1.112-.965.055.117-.358.537-.66 1.182-.304.646-.366 1.237-.506 1.252M42.266 330.42c-.063.133-.716-.077-1.556 0-.84.078-1.446.288-1.555.164-.109-.125.537-.622 1.493-.661s1.688.388 1.618.497"/><path fill="#263238" d="M73.013 198.228c0 1.376 2.232 36.223-9.16 61.434 0 0-3.943 7.885-4.666 11.33s-15.46 60.587-15.46 60.587l-17.03-.622s-2.722-28.625 0-45.197 7.776-14.628 7.776-25.328c0-10.701-2.543-32.887-2.543-32.887s-3.717-6.058-4.985-17.808c-1.034-9.542 3.46-19.768 3.46-19.768l4.441-7.862 37.569-1.968z"/><path fill="#455A64" d="M73.014 198.227v-1.189c0-.786-.047-1.952-.078-3.484-.07-3.072-.187-7.598-.327-13.446v-.085h-.093l-37.568 1.913h-.078l-.047.07c-1.376 2.442-2.893 5.109-4.448 7.862a50.3 50.3 0 0 0-2.698 8.632 38.4 38.4 0 0 0-.941 9.479 58.6 58.6 0 0 0 1.555 9.869 40 40 0 0 0 3.6 9.775v-.078a616 616 0 0 1 1.75 18.003c.249 3.11.467 6.221.622 9.417.078 1.555.14 3.188.148 4.798 0 .778 0 1.61-.047 2.411a22 22 0 0 1-.295 2.395 15.7 15.7 0 0 1-1.672 4.557c-.778 1.454-1.555 2.893-2.333 4.409a41.5 41.5 0 0 0-3.056 9.643c-1.353 6.688-1.625 13.64-1.703 20.647a314 314 0 0 0 1.197 27.109v.186h.18l17.03.622h.163l.039-.163c4.938-19.138 9.542-37.024 13.601-53.106l1.47-5.949c.256-.987.42-1.967.723-2.9.303-.934.645-1.859 1.003-2.761.731-1.804 1.555-3.554 2.333-5.257l.607-1.267q.323-.622.575-1.276c.35-.863.7-1.711 1.05-2.558a103 103 0 0 0 5.374-19.387 168.6 168.6 0 0 0 2.566-28.571c.046-6.703-.226-10.343-.226-10.343v.669c0 .443 0 1.12.047 1.991.047 1.749.078 4.331 0 7.683a173 173 0 0 1-2.59 28.548 103 103 0 0 1-5.443 19.316l-1.042 2.543c-.171.436-.366.848-.576 1.268s-.412.847-.614 1.275c-.778 1.703-1.602 3.453-2.333 5.265-.365.91-.715 1.835-1.019 2.784s-.482 1.952-.73 2.916c-.49 1.96-.98 3.935-1.486 5.949-4.13 16.066-8.725 33.952-13.648 53.09l.202-.147-17.03-.63.202.186c-.778-8.764-1.229-17.839-1.198-27.07.078-6.999.35-13.92 1.696-20.561a41.6 41.6 0 0 1 3.025-9.557c.7-1.501 1.555-2.924 2.333-4.402a16.3 16.3 0 0 0 1.648-4.666q.222-1.216.304-2.449c0-.778.077-1.633.046-2.434 0-1.618-.07-3.227-.148-4.822-.155-3.188-.38-6.33-.637-9.425a603 603 0 0 0-1.765-18.018v-.047a39.7 39.7 0 0 1-3.617-9.658 59 59 0 0 1-1.555-9.798 38.2 38.2 0 0 1 .918-9.394 51 51 0 0 1 2.636-8.555l4.433-7.869-.125.077 37.569-2.029-.102-.086c.187 5.84.327 10.366.42 13.438.055 1.555.094 2.691.125 3.484.03.793.078 1.158.078 1.158"/><path fill="#455A64" d="M60.797 126.87s-10.11-1.788-9.169 11.222c.591 7.776 2.877 21.121 4.145 29.636.436 2.947 1.4 8.22 5.296 11.315l27.918 19.317 8.81-10.537-24.931-23.742-3.888-23.485z"/><path fill="#263238" d="M61.987 79.978a12.8 12.8 0 0 1 4.743 10.825c-.155 1.99-.708 4.254.591 5.77s3.787 1.462 5.016 3.002c1.439 1.82.233 4.526.778 6.789a4.6 4.6 0 0 0 4.891 3.414 17.96 17.96 0 0 1-8.896 3.888l-2.55-3.181c.948 1.12.691 2.901-.219 4.044a7.54 7.54 0 0 1-3.67 2.177 22.769 22.769 0 0 1-19.947-3.242"/><path fill="#263238" d="M24.636 97.53c.498-1.556 1.337-2.932 1.672-4.495.715-3.367-.926-7.162.707-10.195 1.167-2.154 3.64-3.212 5.988-3.935s4.853-1.33 6.603-3.049c1.275-1.26 2.006-3.001 3.281-4.261 1.82-1.804 4.51-2.419 7.061-2.574a15.34 15.34 0 0 1 7.707 1.252 8.41 8.41 0 0 1 4.744 5.933c.202 1.26.046 2.59.45 3.81.436 1.338 1.486 2.38 2.14 3.632a6.75 6.75 0 0 1-1.688 8.088l-18.026 23.283c-3.787 1.431-12.964-.296-15.888-3.111s-6.003-10.529-4.751-14.379"/><path fill="#FFBF9D" d="M62.826 88.78c-.777-5.287-4.767-11.532-10.016-10.567l-16.206 5.443c-1.555.296-.451 2.9-.296 4.51l3.523 36.55s-2.193 1.555-2.97 1.26a.22.22 0 0 0-.252.073.23.23 0 0 0-.013.261c1.968 2.839 11.136 15.18 20.631 11.393 2.115-.848-.225-7.512 0-9.977l-.28-6.307c-.21-3.22-.31-4.542-.31-4.51 0 .031 6.703-1.649 7.426-10.615.365-4.441-.412-11.642-1.237-17.513"/><path fill="#263238" d="M61.699 96.915a1.143 1.143 0 0 1-1.011 1.229 1.09 1.09 0 0 1-1.252-.933 1.143 1.143 0 0 1 1.01-1.229 1.09 1.09 0 0 1 1.253.933M50.656 97.607a1.135 1.135 0 0 1-1.003 1.229 1.095 1.095 0 0 1-1.252-.933 1.143 1.143 0 0 1 1.01-1.229 1.08 1.08 0 0 1 1.245.933M62.103 93.167c-.124.21-1.182-.459-2.504-.264-1.322.194-2.17 1.096-2.333.933s0-.436.381-.848a3.025 3.025 0 0 1 3.889-.537c.435.304.63.623.567.716M50.229 94.155c-.156.194-1.19-.56-2.613-.498s-2.434.863-2.597.684c-.164-.179.07-.42.513-.777a3.4 3.4 0 0 1 2.06-.778c.751-.03 1.49.192 2.1.63.443.319.607.645.537.739M54.685 102.53a7.7 7.7 0 0 1 1.96-.514c.302-.054.598-.14.63-.357a1.56 1.56 0 0 0-.28-.91c-.35-.731-.716-1.501-1.105-2.333-1.556-3.29-2.683-5.996-2.55-6.058.131-.062 1.492 2.55 3.032 5.832.373.817.731 1.556 1.065 2.333.228.361.319.791.257 1.213a.78.78 0 0 1-.474.498 2.2 2.2 0 0 1-.521.109 8.6 8.6 0 0 1-2.014.187"/><path fill="#FF9A6C" d="M56.636 116.924a22.6 22.6 0 0 1-12.1-2.255s3.46 5.988 12.256 4.479zM50.96 106.091c.138-.307.352-.574.621-.777.33-.157.705-.193 1.058-.101a2.44 2.44 0 0 1 1.384.7 1.48 1.48 0 0 1 .35 1.462c-.14.513-.902.777-1.423.886a2.33 2.33 0 0 1-1.555-.319 1.36 1.36 0 0 1-.778-1.011c.035-.306.153-.596.342-.84"/><path fill="#263238" d="M51.208 104.373c.195 0 .303 1.298 1.509 2.154s2.605.599 2.628.778c.023.178-.288.28-.886.342a3.3 3.3 0 0 1-2.193-.584 2.85 2.85 0 0 1-1.182-1.811c-.078-.537.03-.879.124-.879M50.12 89.372c-.101.334-1.33.272-2.753.56-1.423.287-2.55.777-2.76.474-.094-.132.077-.459.52-.816a4.84 4.84 0 0 1 4.2-.778c.544.156.832.397.793.56M61.349 88.71c-.226.296-1.206.087-2.333.164s-2.123.35-2.372.078c-.109-.132 0-.428.428-.723a3.64 3.64 0 0 1 1.89-.599 3.54 3.54 0 0 1 1.928.412c.404.233.56.513.459.669"/><path fill="#263238" d="M33.02 84.932c.777-1.26 2.285-1.906 3.685-2.442a81.6 81.6 0 0 1 18.773-4.783c.777 1.315.062 3.11-1.144 4.067s-2.76 1.338-4.199 1.874c-1.438.537-2.924 1.377-3.523 2.8-.598 1.423-.093 3.297-.653 4.837-.956 2.66-4.666 3.515-5.591 6.167-.715 2.014.45 4.152.778 6.268a7.62 7.62 0 0 1-7.481 8.671q-.654-11.424-1.315-22.832c-.132-1.587-.194-3.298.67-4.627"/><path fill="#263238" d="M17.684 104.163c1.205-1.081 2.714-2.014 3.188-3.554.7-2.247-1.104-4.883.062-6.929 1.058-1.866 4.176-1.765 5.164-3.67.778-1.493-.117-2.808.171-4.114s2.154-2.45 3.476-2.294L40.12 98.665c.964 5.055 1.936 7.776.855 10.7a23.6 23.6 0 0 0-1.61 4.915c-.233 1.711.21 3.647 1.603 4.666-6.221.49-12.038-2.761-17.42-5.91l-5.669-3.328a4.1 4.1 0 0 1-1.555-1.307c-.848-1.384.163-3.165 1.36-4.238"/><path fill="#455A64" d="M23.415 111.504q.327.105.669.132a5.8 5.8 0 0 0 1.936-.14 6 6 0 0 0 2.699-1.454 5.9 5.9 0 0 0 1.773-3.632 6 6 0 0 0-.203-2.387 9.9 9.9 0 0 0-1.15-2.333 9 9 0 0 1-1.19-2.395 3.06 3.06 0 0 1 .334-2.636c.56-.778 1.61-.941 2.59-1.33.529-.19.99-.534 1.322-.988a2.8 2.8 0 0 0 .427-1.625 17.7 17.7 0 0 0-.707-3.235 3.4 3.4 0 0 1 0-1.555c.137-.516.454-.966.894-1.268a6.3 6.3 0 0 1 3.11-.84 6.7 6.7 0 0 0 3.205-.94 6 6 0 0 0 2.216-2.388 9.8 9.8 0 0 0 .777-2.979c.108-.95.312-1.889.607-2.8a6.35 6.35 0 0 1 1.462-2.2 7.2 7.2 0 0 1 4.3-1.944 7.1 7.1 0 0 1 3.889.778c.9.46 1.71 1.076 2.395 1.82a11.3 11.3 0 0 1 1.477 2.122s0-.054-.054-.163a8.066 8.066 0 0 0-1.299-2.022 8.7 8.7 0 0 0-2.41-1.905 7.23 7.23 0 0 0-3.959-.879 7.4 7.4 0 0 0-4.518 1.983 6.6 6.6 0 0 0-1.555 2.333 14.5 14.5 0 0 0-.638 2.854 9.6 9.6 0 0 1-.777 2.877 5.7 5.7 0 0 1-2.069 2.232 6.4 6.4 0 0 1-3.048.879 6.54 6.54 0 0 0-3.329.902 2.54 2.54 0 0 0-1.026 1.446 3.8 3.8 0 0 0 0 1.75 18 18 0 0 1 .7 3.173c.032.5-.093.998-.358 1.423-.3.395-.708.694-1.174.863-.46.195-.957.327-1.439.53-.502.189-.945.508-1.283.924a3.44 3.44 0 0 0-.373 2.924c.29.881.71 1.715 1.244 2.473a9.4 9.4 0 0 1 1.127 2.224c.22.736.295 1.507.218 2.271a5.72 5.72 0 0 1-1.664 3.515 5.87 5.87 0 0 1-2.597 1.462 6.5 6.5 0 0 1-2.551.148"/><path fill="#263238" d="M15.125 100.796c-.102.152-.17.324-.202.505a2.24 2.24 0 0 0 .264 1.555c.19.335.457.62.778.832.4.243.861.367 1.33.358a3.11 3.11 0 0 0 2.721-1.734 4.1 4.1 0 0 0 .444-1.89 5.8 5.8 0 0 0-.436-2.053c-.49-1.345-1.392-2.66-1.407-4.23A2.89 2.89 0 0 1 19.34 92a3.1 3.1 0 0 1 2.255-.7 7.7 7.7 0 0 0 2.69-.28 2.33 2.33 0 0 0 1.105-.933 3.4 3.4 0 0 0 .459-1.368c.045-.929-.031-1.86-.226-2.769a5.9 5.9 0 0 1 .148-2.558 6.44 6.44 0 0 1 2.885-3.795 9.15 9.15 0 0 1 4.332-.996 12.6 12.6 0 0 0 3.935-.622 8.25 8.25 0 0 0 2.783-1.71 8.2 8.2 0 0 0 1.556-1.96A5.8 5.8 0 0 0 42 72.34a12 12 0 0 1-.864 1.898 8.36 8.36 0 0 1-4.277 3.546c-1.26.385-2.57.574-3.888.56a9.3 9.3 0 0 0-4.464.995 6.75 6.75 0 0 0-3.064 3.927 6.3 6.3 0 0 0-.163 2.699c.182.88.258 1.777.226 2.675a2.33 2.33 0 0 1-1.346 2.014 7.3 7.3 0 0 1-2.558.257 3.45 3.45 0 0 0-2.496.777 3.18 3.18 0 0 0-.778 2.388c.034.807.227 1.6.568 2.333.303.7.637 1.353.894 2.006.26.62.408 1.28.435 1.952a3.9 3.9 0 0 1-.388 1.773 2.89 2.89 0 0 1-2.497 1.649c-.432.015-.86-.09-1.236-.304a2.16 2.16 0 0 1-.778-.777 2.2 2.2 0 0 1-.319-1.455c.04-.28.14-.451.117-.458M80.627 104.505a2.45 2.45 0 0 1 0 1.625 2.13 2.13 0 0 1-1.291 1.315 2.25 2.25 0 0 1-2.279-.623 2.07 2.07 0 0 1-.536-1.306 4.3 4.3 0 0 1 .24-1.555c.328-1.05 1.004-2.193.903-3.57a5.03 5.03 0 0 0-1.898-3.592 5.8 5.8 0 0 0-1.936-1.02 8.8 8.8 0 0 0-2.208-.318 11.3 11.3 0 0 1-2.154-.225 2.86 2.86 0 0 1-1.672-1.035 3.5 3.5 0 0 1-.6-1.843 7.1 7.1 0 0 1 .156-1.913c.342-1.184.53-2.407.56-3.64a5.5 5.5 0 0 0-1.112-3.017 7.1 7.1 0 0 0-2.022-1.71q-.851-.504-1.625-1.12a4.1 4.1 0 0 1-1.01-1.307v.11q.046.157.123.303c.195.378.458.715.778.995q.758.66 1.61 1.19a7 7 0 0 1 1.928 1.695 5.2 5.2 0 0 1 1.011 2.877 14.5 14.5 0 0 1-.583 3.554 7.4 7.4 0 0 0-.179 2.007c.03.725.261 1.428.67 2.03a3.2 3.2 0 0 0 1.865 1.173c.73.15 1.472.23 2.217.242.72.009 1.435.108 2.13.295a5.7 5.7 0 0 1 1.82.957 4.71 4.71 0 0 1 1.781 3.336c.109 1.252-.513 2.333-.855 3.46a4.7 4.7 0 0 0-.234 1.68c.034.543.257 1.058.63 1.454a2.46 2.46 0 0 0 2.535.646 2.28 2.28 0 0 0 1.353-1.462 2.24 2.24 0 0 0 .063-1.26 1.3 1.3 0 0 0-.18-.428"/><path fill="#455A64" d="M73.193 165.418v-8.6c.964-4.83.505-10.553-1.742-14.962a81 81 0 0 0-5.397-8.205l-8.555-11.112c-4.712 3.429-12.092.948-18.422-1.353 0 0-6.221 3.46-9.16 6.711-3.057 3.421 7.395 46.231 7.395 46.231-4.736 9.472-10.848 17.886-11.774 26.518l49.459 1.905-2.1-22.676z"/><path fill="#263238" d="M72.508 180.116a4.4 4.4 0 0 1-.039-.972v-2.636c.04-2.333.086-5.343.14-8.694s.156-6.471.265-8.695c.054-1.112.109-2.014.155-2.636q.008-.485.125-.956.047.481 0 .964v2.636c-.04 2.333-.094 5.343-.148 8.694a285 285 0 0 1-.257 8.694 75 75 0 0 1-.163 2.637 4 4 0 0 1-.078.964"/><path fill="#FFBF9D" d="M95.1 187.939s4.82.265 7.776 2.131 7.776 4.775 9.759 8.375c.91 1.657-1.679 2.007-2.963 1.05-1.283-.956-3.235-2.776-4.207-2.994l-.972-.225a65 65 0 0 0 2.963 5.879c1.003 1.555 1.874 4.137-1.143 4.253 0 0-2.03 2.644-4.083.685 0 0-1.602 2.403-4.184-.926 0 0-1.508 1.906-2.13 1.175s-2.683-1.882-3.282-4.262a86 86 0 0 0-3.11-8.158zM203.045 121.108c.536 0 22.614-2.333 22.614-2.333s1.874-8.974 1.773-11.307-1.672-17.77-1.672-17.77l8.266-3.888s11.051 37.265 8.64 40.36-6.944 5.872-7.333 5.887c-.389.016-21.393 9.332-36.005 4.487s3.717-15.436 3.717-15.436"/><path fill="#455A64" d="M183.697 141.226c3.25 3.227 8.849 5.91 18.197 3.577 18.477-4.619 32.327-8.554 37.833-11.509 5.505-2.955 3.359-16.16 3.826-16.759 1.392-1.804-.14-5.677-2.123-6.283-5.654-1.711-15.491-1.034-15.989-.521-2.901 3.048-.257 6.75-.257 6.75l-24.363 3.196c-2.996-.14-5.997.05-8.951.568"/><path fill="#263238" d="m191.87 120.245.583-.125c.389-.07.964-.171 1.726-.264a40 40 0 0 1 6.649-.28l24.356-3.266-.116.272a6.52 6.52 0 0 1-1.12-4.005 4.66 4.66 0 0 1 .7-2.069q.297-.47.669-.886.147-.109.318-.171l.28-.07c.187-.047.366-.062.545-.101a48.3 48.3 0 0 1 9.091-.187c1.59.097 3.171.315 4.728.653.388.086.777.203 1.182.304.414.132.794.355 1.112.653a5.44 5.44 0 0 1 1.376 2.115c.309.805.418 1.672.319 2.527-.071.446-.238.87-.49 1.245-.07.077-.062.287-.07.49v.622c.055 1.672.132 3.375.086 5.086a21.6 21.6 0 0 1-1.175 7.138 7.06 7.06 0 0 1-2.022 2.979 7 7 0 0 1-1.555.917c-.513.273-1.057.483-1.555.731-2.131.91-4.269 1.657-6.377 2.333s-4.176 1.33-6.221 1.929c-8.134 2.333-15.553 4.223-21.728 5.77q-2.214.585-4.479.926a24 24 0 0 1-4.083.217 17 17 0 0 1-6.369-1.384 14.6 14.6 0 0 1-3.499-2.177 9 9 0 0 1-1.042-.988s.358.342 1.096.925a15.2 15.2 0 0 0 3.515 2.1 17.2 17.2 0 0 0 6.307 1.299c1.35.032 2.7-.051 4.036-.249a42 42 0 0 0 4.448-.949c6.222-1.555 13.578-3.468 21.689-5.848 2.03-.599 4.098-1.236 6.221-1.936s4.231-1.439 6.338-2.333c.513-.241 1.05-.451 1.555-.723a6.8 6.8 0 0 0 1.455-.871 6.6 6.6 0 0 0 1.905-2.808 21.4 21.4 0 0 0 1.127-7.037c.047-1.703 0-3.391-.085-5.071v-.972a1 1 0 0 1 0-.186q.026-.072.062-.14l.039-.062c.219-.319.362-.684.42-1.066a4.9 4.9 0 0 0-.303-2.333 5.04 5.04 0 0 0-1.26-1.959 2.54 2.54 0 0 0-.964-.568c-.389-.101-.778-.21-1.159-.303a31 31 0 0 0-4.666-.646 47.3 47.3 0 0 0-8.997.171c-.179 0-.358.047-.529.094l-.249.054a1 1 0 0 0-.156.078 6 6 0 0 0-.63.824 4.2 4.2 0 0 0-.653 1.905 6.23 6.23 0 0 0 1.042 3.772l.156.241h-.272l-24.372 3.111a42 42 0 0 0-6.618.186c-.777.078-1.345.163-1.734.218s-.583.148-.583.148"/><path fill="#029491" d="m125.904 145.571-9.924-17.83L303.682 23.268a9.333 9.333 0 0 1 12.693 3.615l.851 1.529a9.335 9.335 0 0 1-3.616 12.692L125.908 145.578z"/><path fill="#029491" d="M283.301 51.277 260.318 9.984a1.74 1.74 0 0 1 .675-2.37l10.546-5.869a1.74 1.74 0 0 1 1.929.157c.179.142.329.318.44.518l22.983 41.293zM238.08 32.049l16.751 30.094a2.52 2.52 0 0 0 3.427.976l9.186-5.113a2.52 2.52 0 0 0 .977-3.427L251.67 24.485a2.52 2.52 0 0 0-3.427-.977l-9.186 5.114a2.52 2.52 0 0 0-.977 3.427"/><path fill="#029491" d="m252.877 30.291 10.371 18.632 21.105-11.747-10.371-18.632z"/><path fill="#263238" d="M300.936 24.835c.054.093-36.783 20.7-82.26 46.021-45.477 25.32-82.431 45.773-82.431 45.671 0-.101 36.775-20.7 82.267-46.029 45.493-25.328 82.369-45.765 82.424-45.663"/><path fill="#029491" d="M49.887 180.015c13.842 24.885 43.027 34.994 65.19 22.668 22.163-12.325 28.929-42.498 15.086-67.352s-43.02-34.994-65.19-22.668c-22.17 12.325-28.92 42.498-15.086 67.352m68.269-37.996c9.698 17.419 4.962 38.548-10.576 47.188-15.537 8.639-35.981 1.555-45.679-15.88-9.697-17.435-4.961-38.548 10.568-47.196s35.99-1.531 45.687 15.888M147.577 109.94l10.241 18.4a5.07 5.07 0 0 0 6.896 1.965l.829-.462a5.07 5.07 0 0 0 1.965-6.896l-10.242-18.4a5.07 5.07 0 0 0-6.896-1.965l-.829.462a5.07 5.07 0 0 0-1.964 6.896M167.246 98.984l10.241 18.4a5.07 5.07 0 0 0 6.896 1.965l.829-.462a5.07 5.07 0 0 0 1.965-6.896l-10.242-18.4a5.07 5.07 0 0 0-6.896-1.965l-.829.462a5.07 5.07 0 0 0-1.964 6.896"/><path fill="#263238" d="M157.047 104.264c.101-.054 2.473 4.122 5.311 9.332s5.055 9.456 4.954 9.51-2.473-4.113-5.312-9.331c-2.838-5.218-5.054-9.511-4.953-9.511M148.018 110.68c.101-.055 2.418 3.934 5.187 8.896 2.768 4.961 4.922 9.044 4.829 9.098s-2.418-3.935-5.156-8.857c-2.737-4.923-4.953-9.083-4.86-9.137M176.838 93.431c.101-.054 2.519 4.098 5.404 9.278 2.886 5.179 5.141 9.432 5.04 9.487s-2.512-4.106-5.397-9.285-5.141-9.425-5.047-9.48M167.343 99.163c.093-.055 2.465 4.075 5.28 9.223s5.031 9.331 4.93 9.417c-.101.085-2.457-4.075-5.28-9.223s-5.031-9.363-4.93-9.417M223.746 71.113a3.67 3.67 0 0 0 1.555-7.14 3.83 3.83 0 0 0 1.047-2.104 3.83 3.83 0 0 0-2.047-3.977 3.83 3.83 0 0 0-2.32-.373 4.58 4.58 0 0 0-2.381-3.83 4.58 4.58 0 0 0-4.509.066 5.15 5.15 0 0 0-6.338-.14 3.664 3.664 0 0 0-3.243 6.222"/><path fill="#FFBF9D" d="M207.967 57.24h.778a15.6 15.6 0 0 1 15.537 14.363c.583 7.535 1.128 15.864 1.066 19.908-.148 8.398-8.5 9.642-8.5 9.642l.676 10.063-20.32-.661-1.687-36.472c-.716-8.701 3.74-16.361 12.45-16.843"/><path fill="#FF9A6C" d="M216.918 101.153a20.3 20.3 0 0 1-10.957-3.242s2.691 6.337 11.043 5.607z"/><path fill="#263238" d="M219.686 79.496a1.193 1.193 0 0 1-1.158 1.197 1.15 1.15 0 0 1-1.229-1.08 1.206 1.206 0 0 1 1.159-1.206 1.15 1.15 0 0 1 1.228 1.089M222.47 75.716c-.147.156-1.057-.513-2.332-.513-1.276 0-2.232.638-2.372.482-.14-.155.085-.35.497-.653a3.28 3.28 0 0 1 1.898-.575 3.1 3.1 0 0 1 1.858.606c.389.303.521.591.451.653M208.091 78.936a1.199 1.199 0 0 1-1.166 1.22 1.15 1.15 0 0 1-1.114-.643 1.2 1.2 0 0 1-.115-.437 1.2 1.2 0 0 1 1.159-1.205 1.15 1.15 0 0 1 1.236 1.065M209.826 75.919c-.148.155-1.058-.514-2.333-.514s-2.232.638-2.372.482c-.14-.155.086-.35.498-.653a3.27 3.27 0 0 1 1.897-.575 3.1 3.1 0 0 1 1.859.606c.389.304.521.584.451.653M214.46 85.476a8.3 8.3 0 0 1 2.092-.373c.327 0 .638-.094.7-.32a1.67 1.67 0 0 0-.218-.971l-.964-2.504c-1.337-3.57-2.333-6.502-2.162-6.548s1.346 2.792 2.683 6.353q.48 1.319.926 2.52c.201.398.259.855.163 1.29a.82.82 0 0 1-.544.475q-.271.08-.553.078a8.6 8.6 0 0 1-2.123 0M210.953 70.973c-.171.326-1.267 0-2.628-.078s-2.496.179-2.621-.163c-.054-.164.187-.451.677-.716a4.1 4.1 0 0 1 2.037-.42 3.95 3.95 0 0 1 1.968.607c.443.303.645.622.567.77M222.548 70.42c-.272.288-1.337 0-2.612 0s-2.333.195-2.606-.116c-.108-.148.063-.443.537-.715a4.2 4.2 0 0 1 2.123-.475 4.1 4.1 0 0 1 2.076.599c.451.264.599.56.482.708"/><path fill="#263238" d="M223.489 67.792s-2.193-5.249-4.72-6.478c-3.057-1.493-4.379 1.859-7.295 1.035s-5.832-2.248-8.818 0c-3.266 2.457-1.742 4.191-1.96 7.908-.855 15.056-3.624 19.302-4.378 12.21-.086-.778-2.24-1.4-2.551-4.666-.404-4.254-.552-9.426.412-12.443.778-2.543 2.263-4.3 4.868-6.221 4.122-3.048 9.768-3.11 13.602-2.699 3.833.413 11.205 4.79 10.84 11.354"/><path fill="#FFBF9D" d="M196.847 82.233a2.28 2.28 0 0 0-.75-1.623 2.27 2.27 0 0 0-1.692-.578c-1.555.148-3.305 1.027-3.211 4.254.163 5.724 5.879 4.378 5.886 4.207.008-.17-.14-3.865-.233-6.26"/><path fill="#FF9A6C" d="M195.766 86.378s-.093.078-.264.156c-.233.106-.497.12-.739.038a2.46 2.46 0 0 1-1.206-2.185c-.029-.488.05-.977.234-1.43a1.14 1.14 0 0 1 .731-.778.505.505 0 0 1 .599.256c.077.156.046.272.077.28s.117-.1.063-.334a.58.58 0 0 0-.234-.35.73.73 0 0 0-.552-.132 1.4 1.4 0 0 0-1.019.917 3.36 3.36 0 0 0-.303 1.602c.07 1.151.692 2.217 1.555 2.434a1.05 1.05 0 0 0 .902-.178c.156-.156.179-.296.156-.296"/><path fill="#263238" d="M196.995 71.144c.7.57 1.531.958 2.418 1.127a1.866 1.866 0 0 0 2.076-1.306c.07-.397 0-.863.234-1.166.233-.304.894-.25 1.368-.195 1.664.179 3.616-1.656 4.044-3.274a1.484 1.484 0 0 0 1.991.42 5.3 5.3 0 0 0 1.384-1.22 2.37 2.37 0 0 1 1.968-.973c.402.14.82.23 1.244.272.777-.062 1.12-.94 1.236-1.687.117-.747.21-1.61.848-2.014a3 3 0 0 1 2.045-.055c.692.11 1.555-.054 1.765-.73a1.36 1.36 0 0 0-.256-1.035 3.704 3.704 0 0 0-4.371-1.415 5.014 5.014 0 0 0-9.23-1.004 5.096 5.096 0 0 0-8.158 1.836 3.693 3.693 0 0 0-4.184 5.358 3.51 3.51 0 0 0-1.936 2.791c0 1.183 1.128 2.334 2.271 2.053a2.045 2.045 0 0 0 3.53 2.053"/><path fill="#455A64" d="M215.409 59.572v.11c0 .108 0 .17-.039.302-.08.389-.222.761-.42 1.105a4.1 4.1 0 0 1-1.267 1.345c-.686.468-1.504.7-2.333.661l.093-.124a2.05 2.05 0 0 1-.116 1.555 5.9 5.9 0 0 1-.98 1.4 4.3 4.3 0 0 1-.646.66 2.14 2.14 0 0 1-2.745-.334l.21-.062a4.28 4.28 0 0 1-1.827 2.963 3.1 3.1 0 0 1-1.882.614 5.8 5.8 0 0 1-1.851-.412l.155-.07a4.5 4.5 0 0 1-1.36 1.765 2.4 2.4 0 0 1-1.991.537 3.16 3.16 0 0 1-2.426-2.473l.132.062a3 3 0 0 1-1.968.28 3.24 3.24 0 0 1-1.368-.614 2.9 2.9 0 0 1-.638-.7 1 1 0 0 1-.14-.303c.217.357.499.671.832.925.396.287.855.476 1.338.552.635.12 1.292.016 1.858-.295l.109-.062v.124a2.96 2.96 0 0 0 2.286 2.286 2.18 2.18 0 0 0 1.812-.505 4.3 4.3 0 0 0 1.276-1.672l.046-.101h.109c.563.226 1.16.358 1.765.389a2.9 2.9 0 0 0 1.742-.568 4.08 4.08 0 0 0 1.727-2.792v-.272l.179.21a1.85 1.85 0 0 0 2.403.295q.338-.272.606-.614c.385-.397.709-.847.964-1.338a1.85 1.85 0 0 0 .125-1.43l-.047-.14h.148c.794.049 1.583-.161 2.247-.6a4.1 4.1 0 0 0 1.26-1.282c.287-.419.498-.885.622-1.377"/><path fill="#263238" d="M214.445 89.745c-.047-.21-1.439.132-2.73-.816-1.29-.95-1.5-2.473-1.695-2.434-.194.038-.194.404-.054 1.034.191.822.668 1.55 1.345 2.053a3.1 3.1 0 0 0 2.255.59c.599-.092.91-.334.879-.427"/><path fill="#455A64" d="m257.574 307.324 5.521 18.812s20.996.699 22.342 4.082l-36.13 12.007-9.814-28.967z"/><path fill="#E0E0E0" d="M251.415 328.29a1.554 1.554 0 0 0-.459 2.022 1.494 1.494 0 0 0 1.999.474 1.64 1.64 0 0 0 .474-2.146 1.554 1.554 0 0 0-2.139-.265"/><path fill="#263238" d="M283.399 328.857s1.843.164 2.038 1.361l-36.13 12.007-.871-2.963 34.932-10.42"/><path fill="#fff" d="M263.616 325.755c.054.178-.778.552-1.478 1.407-.7.856-.894 1.75-1.081 1.734-.186-.015-.256-1.12.583-2.138.84-1.019 1.96-1.174 1.976-1.003M267.924 326.058c.101.163-.56.715-.918 1.656-.357.941-.256 1.797-.435 1.843s-.622-.91-.163-2.076c.458-1.167 1.462-1.587 1.516-1.423M271.587 329.876c-.148.093-.684-.707-.552-1.82s.824-1.78.949-1.656c.124.124-.218.778-.311 1.726-.094.949.085 1.657-.086 1.75M261.882 321.61c0 .186-.91.21-1.882.606-.972.397-1.649.972-1.789.856-.14-.117.397-.996 1.556-1.455 1.158-.458 2.161-.178 2.115-.007"/><path fill="#455A64" d="m173.323 307.487-7.862 17.964s15.623 13.998 14.495 17.482l-35.383-13.998 11.097-28.493z"/><path fill="#E0E0E0" d="M155.126 319.596a1.554 1.554 0 0 0-1.649 1.252 1.5 1.5 0 0 0 1.229 1.648 1.65 1.65 0 0 0 1.742-1.337c0-.778-.708-1.664-1.47-1.556"/><path fill="#263238" d="M179.264 340.584s1.307 1.315.692 2.333l-35.383-13.997 1.237-2.823 33.439 14.464"/><path fill="#fff" d="M166.098 325.498c-.07.171-.964-.093-2.037.124-1.073.218-1.812.778-1.944.638s.521-1.026 1.82-1.267c1.298-.242 2.27.357 2.161.505M169.209 328.5c0 .178-.887.178-1.765.676-.879.498-1.346 1.205-1.556 1.135s.109-1.096 1.206-1.695 2.177-.28 2.115-.116M169.567 333.772c-.172 0-.07-.98.777-1.75.848-.769 1.773-.832 1.789-.661.015.171-.685.483-1.346 1.128s-1.042 1.338-1.22 1.283M167.444 321.229c-.132.124-.832-.42-1.835-.778s-1.882-.311-1.913-.49.941-.513 2.115-.124c1.174.388 1.773 1.267 1.633 1.392"/><path fill="#263238" d="m186.566 208.803-12.395 50.283s-22.358 37.639-26.145 56.473l20.452 8.041s14.877-36.277 19.239-42.934a53.6 53.6 0 0 1 6.735-8.297 12.96 12.96 0 0 0 3.398-5.879l9.386-35.873z"/><path fill="#263238" d="M181.286 200.763s1.727 13.469 14.69 19.441l27.311 44.482s2.139 14.464 6.221 26.65 12.334 35.67 12.334 35.67l22.466-8.398-14.316-48.946-2.333-16.976-22.288-56.768-19.146-11.478z"/><path fill="#455A64" d="m181.286 200.763.412-.28 1.237-.824 4.852-3.204 18.4-12.093.062-.039.062.039 19.161 11.455v.047l22.334 56.714v.039c.739 5.365 1.556 11.112 2.333 16.976 3.889 13.22 8.01 27.365 12.272 41.938l2.053 6.999.054.179-.179.062-22.466 8.399-.194.07-.063-.194c-3.888-11.284-7.652-22.148-11.206-32.452-.894-2.574-1.773-5.125-2.504-7.675a176 176 0 0 1-1.99-7.59 198 198 0 0 1-2.878-14.643v.062l-27.155-44.497.046.039a25.4 25.4 0 0 1-8.554-6.517 27 27 0 0 1-4.199-6.735 27.7 27.7 0 0 1-1.555-4.665c-.133-.529-.21-.941-.257-1.221s-.055-.42-.055-.42 0 .14.086.412.132.684.28 1.221a28.4 28.4 0 0 0 1.602 4.603 27.1 27.1 0 0 0 4.215 6.665 25.4 25.4 0 0 0 8.554 6.439l27.366 44.45v.039c.777 4.728 1.71 9.612 2.892 14.612a165 165 0 0 0 1.991 7.567c.739 2.543 1.61 5.078 2.504 7.652 3.57 10.304 7.326 21.168 11.229 32.444l-.256-.117 22.466-8.399-.124.241q-1.012-3.476-2.053-6.998l-12.256-41.947c-.778-5.863-1.602-11.61-2.333-16.976v.047l-22.249-56.769.063.07-19.131-11.501h.117l-18.399 12.038-4.899 3.157-1.26.816z"/><path fill="#455A64" d="M193.316 104.668s-6.548 5.04-9.728 10.67c-3.811 6.742-4.223 16.735-4.34 32.257-.116 14.355 2.03 18.344 1.206 23.757-1.626 10.568-2.831 46.037-2.831 46.037s20.997-8.064 25.072-11.665l4.098-3.562 26.277 8.687-5.304-32.288-3.639-40.244-4.666-21.346-.778-8.376-22.567-9.067z"/><path fill="#263238" d="M217.835 108.152c.273.055-.645 1.898-2.263 4.604l-.07.109-.124-.047c-2.278-.886-5.296-1.998-8.593-3.204-3.717-1.353-7.077-2.613-9.48-3.593a75 75 0 0 1-2.83-1.205 6.4 6.4 0 0 1-1.011-.498q.555.125 1.073.358l2.87 1.081 9.518 3.476c3.297 1.205 6.307 2.333 8.554 3.297l-.186.063c1.695-2.652 2.698-4.402 2.542-4.441"/><path fill="#FFBF9D" d="M244.991 91.386s-1.664-2.59-3.235-4.977-3.951-3.562-4.332-4.806-2.473-6.789-2.807-8.165a17.8 17.8 0 0 1-.404-4.06s1.718-.73 2.543 1.727c.497 1.477 2.084 6.493 2.426 6.742s.778-.116.778-.116a59 59 0 0 1-1.828-5.732c-.078-.91.241-6.944.241-6.944a1.82 1.82 0 0 1 2.069 1.158c.816 1.556.847 5.444.847 5.444l1.237 4.34-.436-4.293.622-7.893a2.97 2.97 0 0 1 2.489 2.333c.521 2.13-.171 5.1.179 5.73s.731 4.441.731 4.441.427-9.254 1.415-9.518 1.796.715 1.657 2.582c-.14 1.866-.179 5.816.334 7.558s5.778 8.555 5.35 11.54a50 50 0 0 0-.49 5.444h-9.021z"/><path fill="#FFBF9D" d="M213.349 114.692c.505.195 22.054 5.529 22.054 5.529s4.813-7.776 5.521-10.031 4.495-17.28 4.495-17.28l9.106-.855s-2.333 38.797-5.63 40.889-8.554 3.149-8.896 3.033-23.291 1.477-35.383-8.049 8.733-13.236 8.733-13.236"/><path fill="#000" d="M197.905 135.23a16.45 16.45 0 0 0 8.81 5.179c5.716 1.26 17.886 3.492 17.886 3.492l-.591-5.972-26.44-2.831" opacity=".3"/><path fill="#455A64" d="M188.308 127.018c1.96 4.137 6.315 8.554 15.888 9.557 18.951 1.96 33.299 3.002 39.496 2.069s8.663-14.052 9.332-14.457c1.929-1.213 1.804-5.381.14-6.625-4.728-3.538-14.207-6.221-14.845-5.934-3.772 1.874-2.543 6.26-2.543 6.26l-24.029-5.303a40.5 40.5 0 0 0-8.609-2.504"/><path fill="#263238" d="M203.138 110.081s.202 0 .591.078c.389.077.972.171 1.719.334a40 40 0 0 1 6.345 2.006l24.014 5.226-.202.218a6.46 6.46 0 0 1 .311-4.145 4.6 4.6 0 0 1 1.353-1.711q.444-.346.941-.606.172-.052.35-.055h.288c.194 0 .365.062.552.093a48.3 48.3 0 0 1 8.609 2.917 32 32 0 0 1 4.222 2.224c.335.217.669.459 1.003.692.346.263.628.6.825.987.379.764.576 1.605.575 2.458a5.26 5.26 0 0 1-.56 2.488 2.96 2.96 0 0 1-.886 1.003c-.094.047-.156.249-.234.436l-.202.583c-.513 1.555-1.026 3.22-1.648 4.822a21.8 21.8 0 0 1-3.531 6.345 6.22 6.22 0 0 1-4.666 2.442c-.583.086-1.166.101-1.742.148-2.333.14-4.572.109-6.789.046a185 185 0 0 1-6.493-.311c-8.453-.544-16.035-1.314-22.396-1.975a41 41 0 0 1-4.526-.653 24 24 0 0 1-3.889-1.182 17.2 17.2 0 0 1-5.513-3.468 14.7 14.7 0 0 1-2.551-3.243 9 9 0 0 1-.645-1.283s.218.443.715 1.244a15.4 15.4 0 0 0 2.59 3.165 17 17 0 0 0 5.49 3.375c1.263.487 2.563.869 3.888 1.143q2.239.43 4.511.614c6.361.63 13.943 1.369 22.38 1.898 2.116.124 4.278.233 6.486.288s4.472.085 6.758-.047c.568-.054 1.151-.07 1.718-.156a6.2 6.2 0 0 0 1.665-.318 6.67 6.67 0 0 0 2.753-1.991 21.5 21.5 0 0 0 3.452-6.221c.622-1.556 1.128-3.196 1.641-4.798l.218-.607c0-.093.078-.194.124-.303q.043-.09.101-.171a.6.6 0 0 1 .101-.101l.055-.047c.323-.224.589-.519.778-.863a4.85 4.85 0 0 0 .513-2.333 5.15 5.15 0 0 0-.521-2.271 2.5 2.5 0 0 0-.708-.855c-.334-.226-.653-.467-.987-.677a31 31 0 0 0-4.169-2.201 47.7 47.7 0 0 0-8.515-2.908c-.179 0-.358-.078-.529-.093h-.427a6 6 0 0 0-.871.567 4.2 4.2 0 0 0-1.268 1.555 6.22 6.22 0 0 0-.303 3.889l.07.272-.272-.062-23.975-5.366a42.5 42.5 0 0 0-6.284-2.084c-.778-.179-1.314-.303-1.703-.381s-.7-.07-.7-.07"/><path fill="#263238" d="M243.692 125.393a5.1 5.1 0 0 1-1.555-.677 15.3 15.3 0 0 1-3.266-2.442 16.3 16.3 0 0 1-2.551-3.188 5.6 5.6 0 0 1-.738-1.555 34.3 34.3 0 0 0 3.569 4.425 32 32 0 0 0 4.541 3.437"/><path fill="#FFBF9D" d="M74.506 189.44s4.822.257 7.777 2.131 7.776 4.767 9.76 8.375c.91 1.656-1.68 2.006-2.956 1.042-1.275-.964-3.242-2.768-4.215-2.994l-.972-.218a64 64 0 0 0 2.963 5.872c1.004 1.555 1.874 4.137-1.135 4.261 0 0-2.037 2.644-4.09.684 0 0-1.603 2.396-4.184-.925 0 0-1.501 1.898-2.131 1.174-.63-.723-2.683-1.882-3.282-4.261a83 83 0 0 0-3.11-8.158z"/><path fill="#455A64" d="M33.478 126.038a11.6 11.6 0 0 0-6.058 4.549c-1.85 2.847-2.418 7.777-1.89 11.447 1.12 7.738 4.666 20.795 6.665 29.178.684 2.893 2.092 8.072 6.221 10.817l29.465 17.668 7.878-11.665-26.86-21.89-5.311-30.002z"/><path fill="#263238" d="M28.384 155.527q.06.147.094.303l.248.91c.21.824.506 2.006.895 3.523l3.258 13.025a15.25 15.25 0 0 0 4.853 7.683 29 29 0 0 0 4.308 2.862l4.736 2.862 21.222 12.816-.272.062 2.838-4.207 5.04-7.489.038.272-26.619-21.922h-.047v-.054c-1.757-7.396-3.032-13.454-3.841-17.669a182 182 0 0 1-.855-4.868c-.078-.544-.14-.972-.187-1.275s-.055-.435-.055-.435q.064.21.102.427c.054.304.132.723.225 1.268.21 1.112.513 2.753.949 4.852.847 4.2 2.17 10.242 3.966 17.63l-.055-.086 26.666 21.821.14.117-.101.147-5.04 7.489-2.838 4.207-.1.156-.172-.093-21.19-12.855-4.729-2.87a30 30 0 0 1-4.34-2.885 15.45 15.45 0 0 1-4.906-7.862c-1.33-5.513-2.396-9.969-3.11-13.056-.35-1.556-.63-2.714-.825-3.539l-.226-.956a2 2 0 0 1-.07-.311M28.867 130.183a1.9 1.9 0 0 1 .598-.257 11.3 11.3 0 0 1 1.727-.388 10.23 10.23 0 0 1 5.747.777 11.46 11.46 0 0 1 4.292 3.889c.326.496.587 1.032.778 1.594.084.2.13.413.14.63a16 16 0 0 0-1.159-2.061 12.2 12.2 0 0 0-4.23-3.663 10.74 10.74 0 0 0-5.537-.855c-1.454.116-2.333.404-2.356.334"/></svg>