<svg xmlns="http://www.w3.org/2000/svg" width="91" height="112" fill="none"><path fill="#029491" d="M54.434 110.298 3.817 83.608a7.144 7.144 0 0 1-2.983-9.672L37.824 3.82A7.19 7.19 0 0 1 47.51.821l32.17 16.956L91 56.509l-26.879 50.79a7.193 7.193 0 0 1-9.687 2.999"/><path fill="#fff" d="m79.68 17.776-10.425 19.72a6.69 6.69 0 0 0 2.78 9.011L91 56.508z" opacity=".3"/><path fill="#000" d="M68.548 39.364a7.41 7.41 0 0 0 1.837 9.106l.55.456c2.244 1.758 17.002 13.266 17.27 12.89.266-.377 2.794-5.307 2.794-5.307L72.033 46.508s-4.71-2.67-3.485-7.144" opacity=".2"/><path fill="#FAFAFA" d="M65.377 34.45c-.141.252-5.48-2.308-11.948-5.73S41.827 22.346 42 22.079s5.495 2.308 11.964 5.73c6.468 3.423 11.587 6.39 11.414 6.641M74.61 53.652c-.126.25-8.87-4.098-19.516-9.719-10.644-5.62-19.154-10.44-19.028-10.692.125-.25 8.87 4.098 19.515 9.719S74.751 53.337 74.61 53.65M73.165 64.736c-.126.251-9.64-4.506-21.243-10.645S31.01 42.803 31.151 42.551c.141-.25 9.656 4.507 21.258 10.63s20.897 11.304 20.756 11.555M68.535 73.512c-.141.251-9.656-4.506-21.258-10.629C35.674 56.76 26.38 51.58 26.52 51.328s9.64 4.506 21.242 10.629S68.692 73.26 68.535 73.512M63.886 82.304c-.126.251-9.64-4.506-21.242-10.645S21.747 60.371 21.872 60.12c.126-.25 9.656 4.522 21.258 10.63 11.603 6.107 20.85 11.304 20.756 11.555M59.271 91.08c-.141.252-9.656-4.506-21.242-10.629S17.116 69.147 17.257 68.896s9.64 4.506 21.243 10.629S59.397 90.829 59.27 91.08"/></svg>