<svg xmlns="http://www.w3.org/2000/svg" width="141" height="69" fill="none"><path fill="#455A64" d="M3.84 60.24a4.475 4.475 0 0 1-3.795-5.06l5.534-38.505a3.72 3.72 0 0 1 4.303-3.004l3.614.525a3.87 3.87 0 0 0 3.736-1.566l1.007-1.472a3.87 3.87 0 0 1 3.735-1.567l17.213 2.47a3.89 3.89 0 0 1 3.012 2.212l.654 1.463a3.89 3.89 0 0 0 3.004 2.212l21.903 3.15a3.71 3.71 0 0 1 3.279 4.088l-5.663 39.375a4.466 4.466 0 0 1-5.06 3.786z"/><path fill="#000" d="M3.84 60.24a4.475 4.475 0 0 1-3.795-5.06l5.534-38.505a3.72 3.72 0 0 1 4.303-3.004l3.614.525a3.87 3.87 0 0 0 3.736-1.566l1.007-1.472a3.87 3.87 0 0 1 3.735-1.567l17.213 2.47a3.89 3.89 0 0 1 3.012 2.212l.654 1.463a3.89 3.89 0 0 0 3.004 2.212l21.903 3.15a3.71 3.71 0 0 1 3.279 4.088l-5.663 39.375a4.466 4.466 0 0 1-5.06 3.786z" opacity=".3"/><path fill="#455A64" d="m43.662 17.647-13.926-2.04-.912-2.504a4.86 4.86 0 0 0-3.907-3.081L11.3 8.068a4.303 4.303 0 0 0-4.983 3.443l-.223 1.592L.07 54.904a4.897 4.897 0 0 0 4.303 5.388l55.348 8.021a4.89 4.89 0 0 0 5.655-3.95l5.68-39.486a3.21 3.21 0 0 0-2.728-3.65z"/><path fill="#fff" d="m54.846 34.826-32.925-4.733-1.991 13.851 32.925 4.733z"/><path fill="#263238" d="M48.878 40.213c0 .12-5.096-.508-11.344-1.403s-11.3-1.72-11.274-1.85 5.095.508 11.343 1.403 11.292 1.73 11.274 1.85M48.456 43.165c0 .12-5.095-.508-11.343-1.403s-11.3-1.721-11.283-1.85c.017-.13 5.095.508 11.343 1.403s11.3 1.73 11.283 1.85"/><path fill="#029491" d="M103.753 43.13a2.943 2.943 0 0 1-3.796-1.72l-9.122-23.84a2.43 2.43 0 0 1 1.506-3.09l2.238-.86a2.58 2.58 0 0 0 1.643-2.092l.104-1.162a2.53 2.53 0 0 1 1.643-2.091l10.638-4.08a2.58 2.58 0 0 1 2.436.31l.86.629a2.59 2.59 0 0 0 2.427.31L127.894.28a2.445 2.445 0 0 1 3.193 1.3l9.329 24.381a2.93 2.93 0 0 1-1.721 3.796z"/><path fill="#000" d="M103.752 43.13a2.945 2.945 0 0 1-3.795-1.72l-9.123-23.84a2.426 2.426 0 0 1 1.506-3.09l2.237-.86a2.58 2.58 0 0 0 1.644-2.092l.104-1.162a2.53 2.53 0 0 1 1.643-2.091l10.638-4.08a2.58 2.58 0 0 1 2.436.31l.86.628a2.59 2.59 0 0 0 2.427.31L127.893.28a2.445 2.445 0 0 1 3.193 1.3l9.329 24.382a2.933 2.933 0 0 1-1.721 3.795z" opacity=".3"/><path fill="#029491" d="m112.979 5.977-8.607 3.287-1.325-1.144a3.16 3.16 0 0 0-3.219-.517l-8.434 3.228a2.823 2.823 0 0 0-1.721 3.589l.378.98 9.906 25.889a3.226 3.226 0 0 0 4.2 1.721l34.262-13.116a3.21 3.21 0 0 0 1.989-4.08l-9.364-24.459a2.12 2.12 0 0 0-2.737-1.213z"/><path fill="#fff" d="m124.878 12.235-20.391 7.807 3.284 8.576 20.391-7.807z"/><path fill="#263238" d="M123.176 17.252a62 62 0 0 1-6.928 2.891 61 61 0 0 1-7.083 2.47 66 66 0 0 1 6.885-2.892 64 64 0 0 1 7.126-2.47M123.875 19.085a65 65 0 0 1-6.885 2.883 63 63 0 0 1-7.152 2.453 62 62 0 0 1 6.928-2.892 62 62 0 0 1 7.109-2.445"/></svg>