<svg xmlns="http://www.w3.org/2000/svg" width="1307" height="576" fill="none"><path fill="#7CE3E1" d="M100.611 330.981h339.444v52.656H100.611z"/><path fill="#4761FF" d="M126.179 220.725c27.283 18.898 11.732 60.363 30.407 121.199 6.542 21.299 23.65 77.017 65.764 104.347 58.776 38.138 111.329-14.655 230.383 3.498 49.297 7.519 125.74 29.602 125.443 52.63-.55 42.403-260.958 62.368-351.918 69.345-103.896 7.975-127.381 2.931-149.051-11.413C-23.125 493.893-21.181 269.744 57.1 223.398c19.385-11.478 49.968-15.914 69.078-2.673"/><path fill="#000" d="M457.106 97.978h.888c26.766 0 48.544-21.778 48.544-48.546v-.886C506.538 21.777 484.76 0 457.994 0h-.888c-26.769 0-48.544 21.777-48.544 48.546v.886c0 26.768 21.775 48.546 48.544 48.546m.888-95.976c25.658 0 46.531 20.876 46.531 46.533v.886c0 25.657-20.873 46.533-46.531 46.533h-.888c-25.658 0-46.531-20.876-46.531-46.533v-.886c0-25.657 20.873-46.533 46.531-46.533z"/><path fill="#7CE3E1" d="m450.775 78.445-29.18-32.896 10.728-8.006 18.183 20.496 32.065-37.988 10.934 7.768z"/><path fill="#000" d="M400.392 454.601s35.222 29.318 37.783 39.625-73.019-16.332-73.019-16.332l4.323-24.594z"/><path fill="#fff" d="M434.921 493.805c2.005 0 2.632-.36 3.025-.591a1 1 0 0 0 .482-.61 1.008 1.008 0 0 0-1.483-1.136c-4.367 2.511-46.076-9.392-71.343-17.482a1.013 1.013 0 0 0-1.27.656 1.01 1.01 0 0 0 .656 1.269c.165.052 16.66 5.324 33.721 10.082 23.095 6.429 32.288 7.812 36.212 7.812M401.585 466.759a1 1 0 0 0 .638-.231l6.364-5.225a1.008 1.008 0 0 0-.549-1.761 1.01 1.01 0 0 0-.73.207l-6.363 5.225a1.004 1.004 0 0 0 .06 1.602c.17.12.373.183.58.183M408.535 473.189c.246 0 .484-.09.668-.253l6.65-5.885a1.01 1.01 0 0 0 .069-1.405 1.006 1.006 0 0 0-1.403-.102l-6.65 5.885a1.005 1.005 0 0 0 .666 1.76"/><path fill="#FFB64F" fill-rule="evenodd" d="M407.757 275.792s-5.5-2.426-7.425-2.896c-18.701-4.551-76.569-8.115-76.569-8.115l-.099-3.405-79.822-2.681-7.668 14.201s-8.379 20.075-2.722 37.656 20.075 20.972 29.103 21.42c6.482.325 63.881.184 95.701.08l-6.407 128.673h68.88L431.132 313.5a36.937 36.937 0 0 0-23.375-37.708" clip-rule="evenodd"/><path fill="#FFB64F" fill-rule="evenodd" d="m280.807 295.892-8.195 164.836h68.88l16.783-165.749z" clip-rule="evenodd"/><path fill="#FFAE99" d="M480.827 96.397c-3.055-2.418-7.18 2.442-7.513 2.843.306-.371 3.68-4.625-.198-5.995-2.076-.734-4.702-.275-7.667 4.455-4.095 6.518-7.538 12.249-7.538 12.249a63.8 63.8 0 0 1 3.815-12.68c1.589-3.77-.619-5.547-1.689-5.745-2.651-.49-4.515.15-7.854 7.02-3.338 6.87-4.807 11.055-4.807 11.055s-17.507.647-23.375 3.07c-2.343.968-3.891 5.296-4.909 10.142-1.1 5.208-5.794 41.437-8.456 50.661 9.281 3.08 18.623 5.973 28.083 8.461 1.766.465 5.921.825 5.921.825s1.754-34.603 2.615-46.118a10.26 10.26 0 0 1 5.915-8.442c7.425-3.504 19.22-8.451 20.023-9.419 2.508-3.025 6.05-9.518 8.124-16.5 1.18-3.916.561-5.055-.49-5.882"/><path fill="#000" d="M456.168 115.383a1.02 1.02 0 0 0 .963-.707l2.75-8.885a1.01 1.01 0 0 0-.665-1.261 1.007 1.007 0 0 0-1.26.664l-2.75 8.883a1.004 1.004 0 0 0 .662 1.259 1 1 0 0 0 .3.047"/><path fill="#000" fill-rule="evenodd" d="m417.431 121.689-12.045 38.384c-4.859-9.223-24.712-36.129-36.831-45.507-15.381-11.902-46.61-13.112-46.61-13.112s-26.92-.635-33.586-.11c-11.179.885-52.146 2.805-67.651 28.683-11.275 18.802-31.57 57.698-23.452 83.152 7.469 23.422 46.522 16.588 46.522 16.588s-3.965 36.732-3.69 36.719c0 0 75.389 4.675 74.457 4.419-.028 0-.072-.105-.132-.275l51.409-2.112.981-53.532c.383 26.238 32.176 30.973 42.793 26.238 35.011-15.601 37.602-62.618 52.449-105.282z" clip-rule="evenodd"/><path fill="#fff" d="M318.403 271.68a1.01 1.01 0 0 0 1.006-.954c4.994-95.01-3.776-162.548-3.864-163.219a1.004 1.004 0 0 0-1.507-.732 1.01 1.01 0 0 0-.489 1.007c.088.671 8.833 68.038 3.85 162.851a.98.98 0 0 0 .256.726 1 1 0 0 0 .695.33z"/><path fill="#FCF8F7" fill-rule="evenodd" d="M329.486 164.759c0 2.044 1.201 3.699 2.686 3.699s2.687-1.65 2.687-3.699-1.204-3.698-2.687-3.698-2.686 1.655-2.686 3.698" clip-rule="evenodd"/><path fill="#FCF8F7" d="M328.696 253.36c-1.484 0-2.687-1.656-2.687-3.699s1.203-3.699 2.687-3.699 2.687 1.656 2.687 3.699-1.203 3.699-2.687 3.699"/><path fill="#FCF8F7" fill-rule="evenodd" d="M328.696 204.948c0 2.044 1.205 3.699 2.687 3.699s2.687-1.65 2.687-3.699-1.205-3.698-2.687-3.698-2.687 1.658-2.687 3.698" clip-rule="evenodd"/><path fill="#fff" d="M366.886 225.912a1.01 1.01 0 0 0 1.006-.982c0-.468 1.161-47.1-2.148-78.142a1.01 1.01 0 0 0-.369-.676 1.014 1.014 0 0 0-1.114-.101 1.01 1.01 0 0 0-.519.991c3.3 30.908 2.151 77.411 2.137 77.876q-.004.2.067.387.073.186.21.332a1.018 1.018 0 0 0 .705.312zM396.119 184.417a1.01 1.01 0 0 0 .935-.636l9.267-23.336a1.005 1.005 0 0 0-.565-1.308 1.01 1.01 0 0 0-1.308.565l-9.259 23.334a1.007 1.007 0 0 0 .55 1.309q.183.072.38.072M391.452 167.08a1 1 0 0 0 .484-.123l9.303-5.099a1 1 0 0 0 .517-.992 1.018 1.018 0 0 0-.719-.857 1 1 0 0 0-.766.084l-9.301 5.098a1.008 1.008 0 0 0 .484 1.889z"/><path fill="#FFAE99" fill-rule="evenodd" d="m283.813 201.021 1.826-21.073c2.31-7.046 7.659-13.871 10.937-16 7.001-4.554 30.39-2.909 30.558.825s-21.744 7.323-21.744 7.323 18.326 7.151 18.463 10.671-6.083 3.671-6.083 3.671 2.893 4.202.897 6.996c-1.997 2.794-3.523 2.714-3.523 2.714s4.32 3.891-.762 4.906-15.59-2.538-15.59-2.538-5.841 14.658-16.943 14.658z" clip-rule="evenodd"/><path fill="#fff" d="M251.478 182.819a1.01 1.01 0 0 0 .985-.825l6.817-34.334a1.006 1.006 0 0 0-.802-1.137 1.004 1.004 0 0 0-1.175.744l-6.815 34.334a1.01 1.01 0 0 0 .792 1.185q.097.024.198.033"/><path fill="#fff" d="M243.77 230.774h.047l35.915-1.65a1.01 1.01 0 0 0 .954-.883l5.954-48.18a1.01 1.01 0 0 0-.275-.825 1 1 0 0 0-.364-.245 1 1 0 0 0-.434-.066l-50.96 3.459a1.008 1.008 0 0 0 .135 2.011l49.75-3.347-5.701 46.129-35.065 1.6a1.01 1.01 0 0 0-.937 1.026 1.01 1.01 0 0 0 .981.985z"/><path fill="#000" d="M354.612 333.072a1.01 1.01 0 0 0 1.004-.938l1.312-18.562c1.493-16.693-8.382-32.624-24.016-38.718l-.069-.025-17.999-5.563a1.004 1.004 0 0 0-1.259.665 1.006 1.006 0 0 0 .665 1.26l17.963 5.558a36.105 36.105 0 0 1 22.707 36.669L353.609 332a1.01 1.01 0 0 0 .932 1.075zM358.245 333.058a1 1 0 0 0 .93-.621l9.924-23.788a1.004 1.004 0 0 0-1.313-1.317 1 1 0 0 0-.546.544l-9.924 23.799a1 1 0 0 0 .091.946 1 1 0 0 0 .838.448zM278.365 333.058a1.007 1.007 0 0 0 1.007-1.006v-23.186a1.007 1.007 0 0 0-2.013 0v23.186a1.006 1.006 0 0 0 1.006 1.006M310.296 23.502a29 29 0 0 0-1.601 6.311s1.947-3.567 1.601-6.311"/><path fill="#FFAE99" d="M323.372 42.246a100 100 0 0 0-2.186-4.216 3.7 3.7 0 0 0-3.985-1.854c-6.243 1.276-20.328 5.674-23.837 8.273-3.924 2.906-.209 15.705 4.075 23.422.417.75.745 1.548.977 2.376l-4.153 4.65-7.54 21.346 27.835 11.404 3.27-2.822 4.4-20.4c15.452-7.878 6.732-30.783 1.144-42.18"/><path fill="#000" d="M319.054 51.051a1 1 0 0 0 .74-.321c.028-.03 1.711-1.785 3.592-1.13a1.003 1.003 0 0 0 1.302-.612 1 1 0 0 0-.293-1.094 1 1 0 0 0-.346-.195c-3.144-1.1-5.633 1.554-5.734 1.667a1 1 0 0 0-.266.723 1.01 1.01 0 0 0 1.005.962M305.813 57.445a1.01 1.01 0 0 0 .985-.797c.077-.341.858-3.3 4.95-2.643a1 1 0 0 0 1.016-.468 1.01 1.01 0 0 0-.043-1.117 1 1 0 0 0-.657-.403c-4.873-.77-6.858 2.42-7.23 4.216a1.012 1.012 0 0 0 .979 1.212M309.388 59.662c-.192-.509-.418-1.015-.55-1.543-.206-.418.091-.973.517-1.15a.8.8 0 0 1 .207-.043.62.62 0 0 1 .75.225c0 .017.02.039.031.058q.092.1.159.217.359.739.641 1.51c.223.55.443.965.201 1.562a.827.827 0 0 1-1.029.432c-.599-.256-.726-.715-.927-1.268M322.902 54.863q-.315-.758-.55-1.543c-.207-.418.093-.973.517-1.15a.8.8 0 0 1 .206-.043.62.62 0 0 1 .751.222l.03.06a1 1 0 0 1 .16.218q.36.737.64 1.51c.226.55.446.965.201 1.562a.824.824 0 0 1-1.028.429c-.592-.253-.718-.712-.927-1.265M318.389 73.417c1.859 0 3.421-1.323 4.125-2.271a1.007 1.007 0 0 0-1.606-1.213c-.181.237-1.815 2.263-3.671 1.117-1.227-.757-.883-2.533-.869-2.608a1.01 1.01 0 0 0-.782-1.166 1.01 1.01 0 0 0-1.187.751c-.028.132-.66 3.229 1.779 4.736.66.424 1.427.65 2.211.654"/><path fill="#000" d="M325.479 67.67a1 1 0 0 0 .932-.627c.179-.435 1.686-4.332-.052-6.66-.886-1.186-2.365-1.376-3.798-1.582-1.623-.223-3.157-.432-4.177-1.84-1.804-2.475.55-5.775.574-5.819a1.006 1.006 0 0 0-.966-1.59c-.264.04-.501.184-.659.4-.132.184-3.248 4.507-.58 8.192 1.526 2.103 3.748 2.409 5.538 2.65 1.1.152 2.074.276 2.453.793.903 1.204.141 3.85-.197 4.7a1.006 1.006 0 0 0 .932 1.374z"/><path fill="#EA8165" d="M312.342 84.055a1.523 1.523 0 0 0-1.7 2.081l8.413 12.925 3.366-14.886z"/><path fill="#1A1A1A" d="M330.926 22.707c-.863-8.525-12.801-10.175-17.099-5.319-1.626 1.835-3.43 5.058-3.531 6.114-.196-1.543-1.1-2.825-3.507-3.07-6.66-.676-7.796 8.6-7.796 8.6s-17.3-1.884-25.457 15.17c-6.385 13.35 1.375 25.475 17.229 40.56 0 0 6.262-3.576 8.008-10.429.514-2.018-.132-4.298-1.334-6.462a53.6 53.6 0 0 1-3.971-9.284c2.541-1.024 4.4-4.189 4.4-7.94 0-3.025-1.201-5.654-2.994-7.103 4.98-2.615 16.775-6.229 22.335-7.367a3.7 3.7 0 0 1 3.985 1.853c.602 1.1 1.361 2.53 2.186 4.216 2.013-2.858 8.283-12.37 7.546-19.54"/><path fill="#FFAE99" d="M300.847 72.793c-1.733 2.2-5.5 2.368-8.407.382s-3.869-5.379-2.137-7.576 5.5-2.37 8.407-.385 3.869 5.379 2.137 7.579"/><path fill="#000" d="M299.964 71.63q.181 0 .352-.063a1.01 1.01 0 0 0 .591-1.296c-1.741-4.675-6.754-4.95-9.157-4.45a1 1 0 0 0-.784.8 1.02 1.02 0 0 0 .158.755 1 1 0 0 0 .645.421c.13.025.264.024.393-.003.231-.047 5.291-1.026 6.859 3.181a1.01 1.01 0 0 0 .943.655"/><path fill="#000" fill-rule="evenodd" d="m330.924 103.362-9.285-15.735-7.801 17.157-23.618-18.483-13.307 16.118 24.816 25.705 12.818-20.485 14.405 18.901z" clip-rule="evenodd"/><path fill="#000" d="M301.729 129.13a1 1 0 0 0 .127 0 1 1 0 0 0 .729-.465l12.045-19.25 13.522 17.732a1.007 1.007 0 0 0 1.804-.522l1.971-22.55a1.003 1.003 0 0 0-.912-1.114 1.004 1.004 0 0 0-1.092.938l-1.747 19.959-12.828-16.832a1.002 1.002 0 0 0-1.65.077l-12.164 19.437-22.473-21.47a1 1 0 0 0-.727-.308 1 1 0 0 0-.726.311 1.01 1.01 0 0 0-.18 1.131c.059.122.142.232.244.321l23.375 22.325c.184.176.428.276.682.28M308.013 172.998a1.01 1.01 0 0 0 .994-.835 1.005 1.005 0 0 0-.656-1.12l-6.787-2.417a1.004 1.004 0 0 0-1.287.61 1.003 1.003 0 0 0 .611 1.287l6.787 2.418q.164.056.338.057M319.682 188.289a1.008 1.008 0 0 0 .889-1.464 1 1 0 0 0-.485-.461l-18.257-8.014a1.005 1.005 0 0 0-1.327.518 1.005 1.005 0 0 0 .518 1.327l18.268 8.003q.188.085.394.091M316.294 197.699a1.008 1.008 0 0 0 .429-1.925l-16.393-7.664a1.01 1.01 0 0 0-1.354.478 1.012 1.012 0 0 0 .501 1.345l16.39 7.664a1 1 0 0 0 .427.102M464.979 118.581a1 1 0 0 0 .919-.594c.607-1.347 9.685-19.839 9.776-20.023a1.006 1.006 0 1 0-1.807-.888c-.374.762-9.185 18.7-9.804 20.075a1.01 1.01 0 0 0 .071.96 1 1 0 0 0 .845.459zM472.979 121.119a1.011 1.011 0 0 0 .91-.574l9.103-19.196a1.008 1.008 0 0 0-1.821-.863l-9.1 19.195a1.01 1.01 0 0 0 .163 1.108 1.01 1.01 0 0 0 .745.33"/><path fill="#fff" d="M301.729 129.13h.108a1 1 0 0 0 .748-.467l12.045-19.25 13.522 17.734a1.007 1.007 0 0 0 1.804-.522l2.065-24.286a1 1 0 0 0-.22-.753 1 1 0 0 0-1.092-.32 1 1 0 0 0-.349.197 1.02 1.02 0 0 0-.344.706l-1.845 21.678-12.823-16.827a1.004 1.004 0 0 0-1.65.077l-12.136 19.393-23.925-24.778a1 1 0 0 0-.705-.302 1.004 1.004 0 0 0-.745 1.699l24.816 25.705a1 1 0 0 0 .726.316"/><path fill="#4761FF" d="M1226.08 368.805c-7.72 2.27-16.32 4.533-24.77 5.864-8.02.997-16.87 2.79-25.41 2.669-8.54-.122-16.76-2.187-23.52-8.903-6.92-8.197-5.2-19.377 3.26-27.088 33.84-15.126 68.79-30.646 106.48-31.049 7.96-.086 15.97 1.613 23.07 5.296 12.87 6.693 21.58 19.57 21.81 34.182.17 27.691-29.92 31.318-56.61 26.331-8.89-1.663-17.41-4.291-24.26-7.312-.01-.005-.03-.002-.05.01"/><path fill="#5970FF" d="M793.434 261.188c-5.02-10.872-36.198-78.386-6.21-111.946 27.317-30.574 91.312-17.215 128.28.144 57.473 26.972 56.853 66.959 96.026 70.755 48.6 4.714 70.85-54.792 122.45-46.661 20.74 3.268 47.33 17.629 50.62 36.715 10.19 59.013-196.806 194.848-318.393 130.475-46.801-24.801-70.001-73.481-72.773-79.482"/></svg>