<svg xmlns="http://www.w3.org/2000/svg" width="435" height="471" fill="none"><path fill="#fff" d="M391.556 118.723H91.824v225.222h299.732z"/><path fill="#263238" d="M391.556 343.945v-4.134c0-2.71 0-6.724-.05-11.972 0-10.476-.06-25.87-.111-45.518-.05-39.236-.13-95.492-.22-163.568l.431.431-299.701.09.522-.521v225.222l-.472-.472 216.332.231 61.443.131 16.307.06h5.278-5.198l-16.216.06-61.333.131-216.643.23h-.572v-.471c0-67.565 0-144.241-.05-225.223v-.522h.552l299.701.101h.441v.421c-.09 68.237-.16 124.573-.22 163.87-.05 19.608-.081 34.961-.111 45.417v14.902a5 5 0 0 1-.11 1.104"/><path fill="#263238" d="M390.051 146.308q-.375.049-.753.051h-2.228l-8.549.09c-7.416.06-18.163.09-31.43.08-26.552 0-63.219-.19-103.72-.522l-103.72-.833-31.44-.25-8.54-.101-2.227-.06q-.376.043-.753 0 .374-.068.753-.05h2.228l8.539-.09c7.426-.061 18.164-.091 31.44-.091 26.542 0 63.219.201 103.73.532l103.71.833 31.44.241 8.539.11h2.228q.38-.009.753.06M111.402 130.122a3.53 3.53 0 0 1-2.175 3.271 3.53 3.53 0 0 1-3.855-.763 3.527 3.527 0 0 1-.763-3.854 3.53 3.53 0 0 1 3.271-2.176 3.53 3.53 0 0 1 3.522 3.522M125.522 130.122a3.531 3.531 0 0 1-6.027 2.511 3.53 3.53 0 0 1-.77-3.851 3.53 3.53 0 0 1 3.264-2.182 3.53 3.53 0 0 1 3.533 3.522M136.108 133.694a3.532 3.532 0 1 0 .001-7.065 3.532 3.532 0 0 0-.001 7.065"/><path fill="#EBEBEB" d="M205.659 277.042h-61.594v46.111h61.594zM273.306 277.042h-61.594v46.111h61.594zM352.138 277.042h-61.594v46.111h61.594z"/><path fill="#F5F5F5" d="M252.115 256.167c-28.992-19.268-25.613-59.444-18.121-76.601l22.603-3.939c-7.627 9.401-8.431 43.488 1.187 50.846 9.617 7.359 27.505 7.268 34.581-2.563 5.563-7.717 6.339-25.594 15.737-27.032-3.938-19.957 10.199-41.747 30.026-46.274a37.97 37.97 0 0 1 36.19-30.826 38 38 0 0 1 16.651 3.312l-.434 64.684s6.161 30.692-12.994 37.852c-6.543 2.445-13.03 1.02-18.548-1.614a8.4 8.4 0 0 1-1.783 2.629c-2.972 2.908-7.613 3.667-11.7 2.795a15 15 0 0 1-1.554-.427c-4.306 13.234-16.652 27.46-28.08 33.409-16.532 8.659-48.165 4.107-63.761-6.251"/><path fill="#263238" d="M311.92 203.719s-.028-.11-.126-.319l-.429-.893a18 18 0 0 1-.667-1.477c-.234-.592-.547-1.266-.794-2.052a36 36 0 0 1-2.019-13.806 34.6 34.6 0 0 1 1.759-9.446 32.6 32.6 0 0 1 5.173-9.764 35.8 35.8 0 0 1 21.092-13.194c1.201-.259 2.42-.391 3.55-.529l.221-.02.011-.215A35.23 35.23 0 0 1 353.4 126.77a44 44 0 0 1 4.271-2.759 37 37 0 0 1 8.392-3.545 29.55 29.55 0 0 1 13.037-.795c.775.107 1.439.265 2.024.4q.74.156 1.462.385l.9.251q.15.058.311.066s-.095-.056-.294-.114l-.883-.3a12 12 0 0 0-1.46-.429 25 25 0 0 0-2.049-.475 29.4 29.4 0 0 0-13.189.636c-2.97.814-5.825 2-8.498 3.529a42 42 0 0 0-4.335 2.769 35 35 0 0 0-4.105 3.625 35.5 35.5 0 0 0-9.886 21.908l.237-.244a35.8 35.8 0 0 0-24.977 13.955 32.9 32.9 0 0 0-5.209 9.906 34.9 34.9 0 0 0-1.726 9.606 35.3 35.3 0 0 0 2.194 13.885q.368 1.046.844 2.047.312.753.708 1.466.304.546.475.874.125.162.276.302M300.174 209.34c.099-.012.008-.904.257-2.295.151-.808.389-1.597.711-2.353.405-.922.919-1.793 1.529-2.593a12.8 12.8 0 0 1 2.17-2.1 11 11 0 0 1 2.127-1.238c1.299-.563 2.184-.681 2.168-.772-.016-.092-.227-.03-.635.01a7.1 7.1 0 0 0-1.671.424 9.6 9.6 0 0 0-2.273 1.188 11.04 11.04 0 0 0-3.874 4.892 9.6 9.6 0 0 0-.631 2.493 6.7 6.7 0 0 0-.016 1.727c.062.409.11.624.138.617M310.383 233.657s.048-.635.265-1.754a12.2 12.2 0 0 1 1.832-4.452 11.35 11.35 0 0 1 5.587-4.419 11.9 11.9 0 0 1 8.776.269l.388.171-.025-.411c-.05-1.371.055-2.743.314-4.09a18.8 18.8 0 0 1 4.702-9.261 18.6 18.6 0 0 1 7.171-4.637 19.5 19.5 0 0 1 5.7-1.113c1.38-.049 2.149.031 2.143-.019a2 2 0 0 0-.551-.092 12 12 0 0 0-1.6-.092 18.52 18.52 0 0 0-13.205 5.623 18.82 18.82 0 0 0-5.189 13.704l.368-.249a12.25 12.25 0 0 0-9.173-.247 11.6 11.6 0 0 0-5.72 4.665 11.8 11.8 0 0 0-1.735 4.604q-.1.66-.097 1.329-.01.24.049.471M237.466 241.022q.17.371.396.711c.284.447.687 1.127 1.255 1.962a46.4 46.4 0 0 0 5.532 6.523 54.5 54.5 0 0 0 10.04 7.689 65 65 0 0 0 6.642 3.473 72 72 0 0 0 7.499 2.929 82.8 82.8 0 0 0 27.807 4.207 48 48 0 0 0 8.503-.929c.983-.224 1.747-.414 2.253-.582q.396-.1.766-.271-.405.056-.799.17c-.514.14-1.275.285-2.265.482a52.4 52.4 0 0 1-8.464.765 85.4 85.4 0 0 1-27.619-4.329 71 71 0 0 1-7.447-2.899 64 64 0 0 1-6.614-3.421 56 56 0 0 1-10.063-7.551 51 51 0 0 1-5.576-6.35c-.596-.806-1.01-1.469-1.306-1.935a5 5 0 0 0-.54-.644M252.711 217.787c.07.454.201.896.391 1.314a20 20 0 0 0 1.538 3.318 21.96 21.96 0 0 0 20.209 11.05 20 20 0 0 0 3.61-.493 5.6 5.6 0 0 0 1.288-.405 44 44 0 0 1-4.908.52 22.51 22.51 0 0 1-19.875-10.865 39 39 0 0 1-2.253-4.439"/><path fill="#029491" d="M248.198 172.424a35.5 35.5 0 0 1 3.599 13.479 3.181 3.181 0 0 1-5.611 2.226l-.069-.041c.696 5.7 1.013 11.44.95 17.182a3.918 3.918 0 0 1-4.972 3.76 3.9 3.9 0 0 1-1.978-1.298 60.04 60.04 0 0 1-13.623-39.947z"/><path fill="#000" d="M245.678 177.648c.395.698.646 1.468.739 2.264a2.07 2.07 0 0 1-1.021 2.008c-1.088.523-2.472-.351-3.543.241s-.995 2.221-.711 3.46l.916 3.918c.226.961.368 2.162-.45 2.74s-2.118-.002-2.923-.733a15.7 15.7 0 0 1-4.894-13.73z" opacity=".3"/><path fill="#029491" d="M246.651 223.068a3.503 3.503 0 1 1-.216-.127"/><path fill="#F5F5F5" d="M236.036 2.64c5.232-.2 15.349 12.95 25.122 35.182a134.4 134.4 0 0 1 10.802 41.313l3.67 97.145-25.591.967-14.848.567-25.591.966-3.328-88.16c-.332-8.625.164-17.261 1.481-25.791a161 161 0 0 1 5.881-25.212c7.531-22.993 17.175-36.785 22.402-36.977"/><path fill="#029491" d="m207.321 117.868-.239.208a61.2 61.2 0 0 0-21.066 48.621l.442 11.641 22.507-16.938z"/><path fill="#263238" d="m207.321 117.867.007.226.015.626.096 2.386.263 9.02 1.092 31.267.071-.121-20.478 15.454-2.032 1.471.259.152-.268-6.856c-.069-2.254-.203-4.476-.193-6.648a62 62 0 0 1 1.167-12.452 59 59 0 0 1 3.218-10.835c.619-1.662 1.398-3.183 2.082-4.679.684-1.495 1.475-2.858 2.291-4.124a60.7 60.7 0 0 1 8.639-11.216c1.138-1.239 2.14-2.069 2.755-2.697l.977-.927-.267.216-.737.578c-.644.599-1.664 1.419-2.819 2.649a59.2 59.2 0 0 0-8.764 11.211c-.825 1.261-1.57 2.663-2.319 4.132s-1.477 3.02-2.11 4.685a59.4 59.4 0 0 0-3.271 10.885 62.3 62.3 0 0 0-1.193 12.518c-.013 2.194.118 4.403.196 6.662l.276 6.884.013.334.27-.202 2.031-1.47 20.51-15.448.041-.069.035-.06-1.289-31.407-.379-8.96-.096-2.387c-.014-.253-.014-.451-.031-.6z"/><path fill="#029491" d="m273.355 115.381.268.158a60.4 60.4 0 0 1 24.331 46.248l.438 11.487-23.41-14.964z"/><path fill="#263238" d="m273.355 115.381-.004.184.022.596.053 2.361.297 8.842 1.076 30.978.008.086.06.036c6.569 4.21 13.772 8.828 21.323 13.664.726.428 1.422.908 2.072 1.326l.285.168-.012-.333-.253-6.765c-.098-2.225-.136-4.414-.311-6.567a60.7 60.7 0 0 0-2.11-12.229 58 58 0 0 0-4.024-10.444c-.735-1.599-1.63-3.046-2.422-4.468a28.5 28.5 0 0 0-2.603-3.864 58.7 58.7 0 0 0-9.395-10.384c-1.232-1.111-2.288-1.85-2.97-2.391l-.803-.614c-.21-.158-.286-.168-.286-.168.165.097.435.349 1.022.835s1.718 1.316 2.931 2.439a60 60 0 0 1 9.344 10.411c.893 1.191 1.678 2.528 2.585 3.854s1.656 2.863 2.388 4.448a58 58 0 0 1 3.972 10.414 61.2 61.2 0 0 1 2.079 12.163c.163 2.135.195 4.332.293 6.557l.253 6.765.267-.157c-.666-.393-1.366-.864-2.063-1.321-7.557-4.828-14.773-9.442-21.347-13.644l.076.127-1.252-30.838-.38-8.879-.096-2.386-.034-.614z"/><path fill="#029491" d="M236.035 2.641c4.039-.31 11.023 7.663 18.486 21.52l-36.737 3.89c6.367-14.616 13.074-25.025 18.251-25.41"/><path fill="#263238" d="M209.692 162.934c.011.1 14.648-.288 32.696-.867s32.69-1.115 32.679-1.215c-.011-.099-14.59.288-32.687.872s-32.691 1.115-32.688 1.21M210.105 165.869c-.041.069 14.64-.293 32.687-.872s32.691-1.115 32.68-1.215c-.011-.099-14.632.298-32.688.873-18.055.574-32.69 1.114-32.679 1.214M210.159 168.976c.012.1 14.649-.288 32.697-.867 18.047-.579 32.69-1.115 32.679-1.215-.011-.099-14.631.298-32.687.873-18.056.574-32.691 1.114-32.689 1.209M210.224 172.09c.011.099 14.654-.297 32.696-.867s32.703-1.155 32.659-1.18c-.043-.026-14.631.298-32.687.872s-32.665 1.071-32.668 1.175M210.267 175.179c-.041.07 14.64-.292 32.696-.867 18.056-.574 32.682-1.12 32.679-1.214-.002-.095-14.631.298-32.687.872s-32.647 1.14-32.688 1.209"/><path fill="#263238" d="M240.219 116.7s-.077.13-.059.455-.02.745-.032 1.32c-.009 1.16.035 2.805.101 4.847.118 4.089.353 9.737.651 15.97s.596 11.872.831 15.959l.305 4.839.103 1.307a1.6 1.6 0 0 0 .058.454q.021-.232.005-.463l-.03-1.311-.196-4.845-.753-15.936-.75-15.958-.227-4.793c-.015-.568-.051-1.02-.039-1.316z"/><path fill="#263238" d="M207.322 117.867c.011.1 14.672-.367 32.74-1.039 18.067-.672 32.734-1.287 32.731-1.382-.002-.095-14.663.372-32.739 1.039-18.076.668-32.734 1.288-32.732 1.382M236.129 148.931a.85.85 0 0 0-.424-.25 2 2 0 0 0-1.354-.053 2.01 2.01 0 0 0-1.413 1.428 2.13 2.13 0 0 0 .789 2.352 2.13 2.13 0 0 0 2.481.006c.296-.192.537-.458.698-.772a2 2 0 0 0 .217-1.018 2.1 2.1 0 0 0-.426-1.253c-.208-.24-.383-.319-.393-.302s.121.13.283.389c.23.353.348.767.337 1.188a1.74 1.74 0 0 1-.882 1.496 1.828 1.828 0 0 1-2.727-.917 1.8 1.8 0 0 1-.04-1.088 1.74 1.74 0 0 1 1.167-1.268 2.1 2.1 0 0 1 1.211-.079c.314.08.461.167.476.141M235.072 130.172s-.111-.147-.423-.25a2 2 0 0 0-1.355-.053 2.01 2.01 0 0 0-1.412 1.428 2.124 2.124 0 0 0 2.027 2.754c.446.001.88-.137 1.242-.396a2 2 0 0 0 .915-1.79 2.12 2.12 0 0 0-.431-1.245 1 1 0 0 0-.388-.31s.116.139.279.397c.229.353.347.768.336 1.189a1.72 1.72 0 0 1-.877 1.487 1.83 1.83 0 0 1-2.075-.041 1.822 1.822 0 0 1-.697-1.955 1.8 1.8 0 0 1 .418-.793c.206-.223.465-.39.754-.484a2.1 2.1 0 0 1 1.206-.07c.319.071.466.158.481.132M244.096 100.557a1 1 0 0 0-.424-.249 2.1 2.1 0 0 0-1.354-.054 2.01 2.01 0 0 0-1.443 1.48 2.13 2.13 0 0 0 2.034 2.748c.445 0 .879-.14 1.24-.399a2.006 2.006 0 0 0 .916-1.79 2.05 2.05 0 0 0-.432-1.244c-.212-.253-.377-.328-.388-.311q.13.203.284.389c.223.356.34.768.336 1.188a1.77 1.77 0 0 1-.881 1.496 2.02 2.02 0 0 1-2.075-.058 1.944 1.944 0 0 1-.683-1.964 1.75 1.75 0 0 1 1.168-1.268 2.1 2.1 0 0 1 1.211-.079c.329.054.476.141.491.115"/><path fill="#263238" d="M248.063 87.345c-.091.016-.282 6.566-.461 14.615-.178 8.049-.163 14.604-.064 14.593.1-.011.283-6.566.462-14.615.178-8.049.184-14.58.063-14.593"/><path fill="#000" d="M274.929 157.195s-1.717-28.153-1.574-41.814c2.966 6.489 6.299 13.917 7.155 21.003a29.8 29.8 0 0 1-5.581 20.811" opacity=".3"/><path fill="#fff" d="M234.224 89.067c-10.598-2.671-17.023-13.428-14.352-24.025 2.671-10.598 13.428-17.023 24.025-14.352 10.598 2.672 17.023 13.428 14.352 24.026s-13.428 17.023-24.025 14.351"/><path fill="#263238" d="M230.001 87.496a1.4 1.4 0 0 0-.277-.163l-.813-.48a10 10 0 0 1-1.268-.852 15 15 0 0 1-1.619-1.303 19.3 19.3 0 0 1-3.631-4.354 19.8 19.8 0 0 1-2.643-6.998 19.55 19.55 0 0 1 6.017-17.735 18.3 18.3 0 0 1 4.632-3.175 23 23 0 0 1 2.69-1.105 24 24 0 0 1 2.869-.639 19.47 19.47 0 0 1 20.55 10.588q.659 1.303 1.147 2.68.428 1.394.659 2.834a18.4 18.4 0 0 1 .111 5.621 19.7 19.7 0 0 1-3.918 9.491 19.7 19.7 0 0 1-14.248 7.572 19 19 0 0 1-5.651-.431 17 17 0 0 1-2.004-.552 10 10 0 0 1-1.43-.54c-.354-.15-.642-.274-.87-.362a1.2 1.2 0 0 0-.298-.106q.131.093.276.163c.208.123.501.237.845.405q.685.356 1.421.593.972.363 1.984.587a18.4 18.4 0 0 0 5.718.575 19.93 19.93 0 0 0 14.573-7.59 20.1 20.1 0 0 0 4.074-9.736c.264-1.915.231-3.86-.097-5.764a18.6 18.6 0 0 0-1.826-5.736 19.5 19.5 0 0 0-3.598-5.08 21.2 21.2 0 0 0-5.157-3.82 20.07 20.07 0 0 0-12.317-1.95 21 21 0 0 0-2.967.687q-1.413.481-2.755 1.136a18.9 18.9 0 0 0-4.733 3.267 20.07 20.07 0 0 0-5.563 8.964 19.95 19.95 0 0 0 2.271 16.284 19 19 0 0 0 3.737 4.37q.78.711 1.666 1.284.615.465 1.297.823l.813.479q.161.056.333.068"/><path fill="#263238" d="M236.036 2.64q-.116.001-.231.016-.348.015-.679.124a7.5 7.5 0 0 0-2.391 1.27 31.6 31.6 0 0 0-6.775 7.957 99 99 0 0 0-7.685 14.795 155 155 0 0 0-7.214 21.013q-1.558 6.001-2.815 12.68a139 139 0 0 0-1.879 14.036A138 138 0 0 0 206 89.737l.592 16.168 2.735 72.843.009.262.262-.009c10.595-.406 21.699-.827 33.01-1.242 11.31-.414 22.416-.857 33.02-1.258h.256l-.009-.262-2.742-72.87-.628-16.166-.315-7.687c-.152-2.548-.525-5.039-.841-7.485a143.8 143.8 0 0 0-6.793-26.241 173 173 0 0 0-9.175-20.26 110.6 110.6 0 0 0-8.75-14.186 32.3 32.3 0 0 0-7.213-7.525 7.3 7.3 0 0 0-2.465-1.115 2.7 2.7 0 0 0-.692-.07 1 1 0 0 0-.234.001q.462.01.91.117c.869.234 1.69.623 2.421 1.148a32.8 32.8 0 0 1 7.178 7.586 112 112 0 0 1 8.658 14.201 175 175 0 0 1 9.038 20.238 143.4 143.4 0 0 1 6.697 26.185c.365 2.404.706 4.889.848 7.395l.285 7.717.606 16.164 2.712 72.864.252-.271-33.015 1.25-33.01 1.242.271.252-2.78-72.846-.606-16.164a138 138 0 0 1 .328-15.16c.377-4.868 1.041-9.532 1.834-13.98s1.707-8.686 2.743-12.676a155 155 0 0 1 7.127-20.983 99.6 99.6 0 0 1 7.564-14.808 32 32 0 0 1 6.682-7.977 7.8 7.8 0 0 1 2.345-1.31q.454-.123.921-.179"/><path fill="#fff" d="M328.829 261.981H154.554a20.602 20.602 0 0 1 0-41.204h174.275a20.606 20.606 0 0 1 20.602 20.602 20.6 20.6 0 0 1-20.602 20.602"/><path fill="#263238" d="m328.828 261.98 1.224-.09a9 9 0 0 0 1.506-.151q1.04-.13 2.057-.391l1.224-.321c.422-.141.853-.311 1.315-.482l.702-.261.713-.351a12 12 0 0 0 1.475-.773 20.2 20.2 0 0 0 5.97-5.238 16 16 0 0 0 1.315-1.916q.646-1.038 1.134-2.158.528-1.168.923-2.388c.111-.422.221-.843.331-1.285l.171-.652.1-.672.211-1.375.06-1.405v-1.445c0-.492 0-1.003-.09-1.475a21.8 21.8 0 0 0-1.596-5.941 20.8 20.8 0 0 0-9.091-9.844 20.3 20.3 0 0 0-7.025-2.238c-2.528-.281-5.188-.14-7.887-.17l-168.977.08a22.9 22.9 0 0 0-6.021.893 22.3 22.3 0 0 0-5.439 2.619 22 22 0 0 0-4.395 4.014 21.1 21.1 0 0 0-3.011 5.128 21.5 21.5 0 0 0-1.405 5.74 22 22 0 0 0 .301 5.85 20.27 20.27 0 0 0 5.309 10.156 20.24 20.24 0 0 0 9.764 5.629 22 22 0 0 0 2.769.502c.944 0 1.867.13 2.82.11h27.596l75.974.06 51.178.081 13.928.05h4.857-18.785l-51.178.09-75.974.05h-27.596c-.943 0-1.916-.07-2.87-.11a23 23 0 0 1-2.84-.512 20.73 20.73 0 0 1-10.034-5.76 21.6 21.6 0 0 1-3.473-4.796 22.1 22.1 0 0 1-2.007-5.62 22.7 22.7 0 0 1-.301-6.021 20.9 20.9 0 0 1 4.526-11.149 20.83 20.83 0 0 1 10.095-6.843c2-.584 4.069-.895 6.152-.924l168.977.071c2.699 0 5.338-.101 7.927.2a20.3 20.3 0 0 1 7.175 2.288 21.07 21.07 0 0 1 9.202 10.035 21.9 21.9 0 0 1 1.596 6.021c.05.502.05 1.004.08 1.495v1.455c0 .482-.05 1.004-.07 1.435s-.151.934-.221 1.385l-.1.682-.171.663q-.178.662-.341 1.294c-.331.823-.552 1.666-.943 2.419a18 18 0 0 1-1.164 2.177q-.6 1.006-1.335 1.917a20.4 20.4 0 0 1-6.021 5.258 15 15 0 0 1-1.495.763l-.723.341-.702.261c-.472.171-.903.341-1.335.472l-1.224.311q-1.026.258-2.077.371-.748.12-1.506.13z"/><path fill="#fff" d="M327.414 245.562a9.173 9.173 0 0 0-.001-12.971 9.17 9.17 0 0 0-12.97 0 9.172 9.172 0 1 0 12.971 12.971"/><path fill="#263238" d="M320.921 249.918a9.674 9.674 0 1 1-.02-19.348 9.674 9.674 0 0 1 .02 19.348m0-18.333a8.667 8.667 0 0 0-8.515 10.355 8.67 8.67 0 1 0 8.515-10.355"/><path fill="#263238" d="m328.585 245.251-.536.849 7.764 4.902.535-.849z"/><path fill="#455A64" d="m65.706 438.834.612 29.182-38.413.903c.13-3.472 19.819-10.908 19.819-10.908l-1.204-18.675z"/><path fill="#fff" d="M59.564 456.165a1.48 1.48 0 0 1 1.124 1.665 1.505 1.505 0 0 1-1.736 1.074 1.41 1.41 0 0 1-1.212-1.183 1.414 1.414 0 0 1 1.964-1.516M66.318 468.016l-.19-2.941-36.758 2.007s-1.686.743-1.465 1.877z" opacity=".6"/><path fill="#263238" d="M47.101 457.84c0 .181.943.241 1.887.793.943.552 1.445 1.275 1.615 1.204s-.13-1.093-1.284-1.736c-1.154-.642-2.268-.421-2.218-.261M43.107 459.516c0 .171.783.452 1.445 1.185.662.732.863 1.525 1.003 1.515s.281-1.004-.552-1.917c-.832-.913-1.896-.953-1.896-.783M40.94 464.122c.17 0 .41-.853-.09-1.816-.503-.963-1.396-1.324-1.476-1.174s.482.652.883 1.445.502 1.535.682 1.545M47.342 453.556c.08.16.943-.101 2.007-.06 1.063.04 1.896.341 2.006.19.11-.15-.722-.772-2.006-.803-1.285-.03-2.118.542-2.007.673M48.125 449.23c.635.149 1.299.132 1.926-.05a9.2 9.2 0 0 0 2.007-.632 9.5 9.5 0 0 0 1.084-.582q.32-.177.572-.441a.73.73 0 0 0 .06-.944 1.003 1.003 0 0 0-.833-.391q-.363.01-.712.11-.617.158-1.194.422a6.6 6.6 0 0 0-1.736 1.144c-.873.792-1.164 1.465-1.094 1.495s.502-.502 1.395-1.174a8 8 0 0 1 1.685-.953q.54-.209 1.104-.342c.402-.11.743-.12.853 0 .11.121 0 .091 0 .211a1.9 1.9 0 0 1-.411.321q-.488.312-1.004.572c-.59.297-1.209.536-1.846.713q-.946.192-1.857.521"/><path fill="#263238" d="M48.347 449.481c.346-.52.509-1.142.461-1.766a5.5 5.5 0 0 0-.31-2.007 6 6 0 0 0-.523-1.093 1.61 1.61 0 0 0-1.254-.894.92.92 0 0 0-.793.532q-.142.322-.17.673a3.8 3.8 0 0 0 0 1.224c.128.681.425 1.319.863 1.856.782.924 1.565 1.114 1.585 1.054s-.602-.411-1.204-1.305a4.1 4.1 0 0 1-.652-1.695 3.4 3.4 0 0 1 0-1.054c0-.381.19-.703.34-.662s.533.271.693.582q.297.478.502 1.003c.231.577.374 1.186.422 1.806.15 1.054-.03 1.716.04 1.746"/><path fill="#455A64" d="m94.817 441.263 3.703 28.95 38.132-4.736c-.642-3.412-21.203-7.877-21.203-7.877l-1.546-18.655z"/><path fill="#fff" d="M103.427 457.499a1.49 1.49 0 0 0-.873 1.817 1.513 1.513 0 0 0 1.876.803 1.56 1.56 0 0 0 .914-1.927 1.596 1.596 0 0 0-2.007-.632M98.519 470.214l-.251-2.941 36.647-3.431s1.736.441 1.736 1.635z" opacity=".6"/><path fill="#263238" d="M116.001 457.339c0 .18-.903.371-1.756 1.054-.853.682-1.245 1.475-1.425 1.424-.181-.05 0-1.093 1.003-1.896 1.004-.803 2.198-.753 2.178-.582M120.186 458.402c.07.171-.702.572-1.244 1.395s-.633 1.626-.813 1.646c-.181.02-.432-1.003.261-2.007.692-1.003 1.776-1.174 1.796-1.034M123.006 462.647c-.161.061-.522-.782-.161-1.806.361-1.023 1.184-1.515 1.275-1.385.09.131-.382.723-.663 1.566s-.261 1.585-.451 1.625M115.149 453.134c-.061.17-.944 0-2.007.231-1.064.23-1.827.612-1.937.471-.11-.14.592-.863 1.826-1.083 1.235-.221 2.198.23 2.118.381M113.724 448.97a3.8 3.8 0 0 1-1.907.221 8.4 8.4 0 0 1-2.067-.332 8 8 0 0 1-1.164-.411 2.4 2.4 0 0 1-.632-.351.74.74 0 0 1-.201-.923 1.06 1.06 0 0 1 .773-.512q.36-.046.722 0 .629.06 1.234.241a6.7 6.7 0 0 1 1.897.873c1.003.662 1.355 1.284 1.294 1.324s-.572-.431-1.545-.953a7.3 7.3 0 0 0-2.95-.883c-.422-.05-.763 0-.843.17-.08.171 0 .101.07.201q.212.16.462.251a8 8 0 0 0 1.073.421q.945.306 1.927.442.937.04 1.857.221"/><path fill="#263238" d="M113.512 449.231a2.8 2.8 0 0 1-.712-1.686 5.6 5.6 0 0 1 0-2.007q.11-.597.351-1.154a1.59 1.59 0 0 1 1.104-1.064.91.91 0 0 1 .863.402q.179.303.271.642c.118.393.169.804.15 1.214a4 4 0 0 1-.582 2.007c-.632 1.004-1.384 1.335-1.415 1.275-.03-.061.542-.502 1.004-1.466a4.14 4.14 0 0 0 .391-1.776 3.4 3.4 0 0 0-.16-1.003c-.101-.382-.291-.673-.442-.612-.15.06-.471.351-.592.672q-.223.487-.361 1.003a6.8 6.8 0 0 0-.151 1.847c.101 1.054.342 1.706.281 1.706"/><path fill="#263238" d="m35.914 283.967 59.798 1.916s14.099 94.107 13.707 100.66l8.69 68.237-25.287.893s-4.014-22.147-6.754-37.299c-1.846-10.035-5.218-24.867-6.131-33.286s-15.705-67.234-15.705-67.234 1.094 68.237 1.064 71.047 2.93 66.692 2.93 66.692H43.14c-1.295-11.53-4.375-57.671-5.018-66.993-1.204-16.838-5.017-64.404-5.529-76.556s3.322-28.077 3.322-28.077"/><path fill="#455A64" d="M39.857 284.428c.28-1.415.28-2.87 0-4.285a10.5 10.5 0 0 0 0 4.285M37.368 285.562a8.13 8.13 0 0 0-.452-5.419q.042 1.363.261 2.709.005 1.362.19 2.71M59.704 281.077c.485.099.928.349 1.264.712a1.73 1.73 0 0 1 .412 1.415 1.63 1.63 0 0 1-1.265 1.144 1.63 1.63 0 0 1-1.595-.602 1.78 1.78 0 0 1-.14-1.465c.175-.466.5-.861.923-1.124 0 0-.171 0-.422.11a1.8 1.8 0 0 0-.782.903 2.01 2.01 0 0 0 .08 1.787 2.01 2.01 0 0 0 2.023.828 2.01 2.01 0 0 0 1.58-1.511 2 2 0 0 0-.583-1.696 1.85 1.85 0 0 0-1.063-.552c-.281-.03-.432.03-.432.051M87.271 384.927a53 53 0 0 0 6.402-2.398 54 54 0 0 0 6.242-2.8 55 55 0 0 0-6.412 2.399 55 55 0 0 0-6.232 2.799"/><path fill="#263238" d="M90.492 142.525c-.191-3.482-2.339-5.63-5.339-7.406a10.86 10.86 0 0 0-10.035-.451c-2.107 1.003-3.953 2.709-6.262 3.01-3.813.492-7.415-3.01-11.148-2.158a4.96 4.96 0 0 0 .361 9.714c-2.499.361-3.904 3.522-3.01 5.861.893 2.338 3.532 3.712 6.02 3.763 2.535-.081 5-.855 7.125-2.238 2.178-1.264 4.215-2.79 6.493-3.874a10.8 10.8 0 0 1 7.315-1.073c3.302.873 5.64 4.014 6.493 7.285s.491 6.794 0 10.165c-.492 3.372-1.164 6.774-.843 10.176a1.25 1.25 0 0 0 .481 1.003c.502.281 1.084-.19 1.456-.632a50 50 0 0 0 9.412-17.059c1.154-3.613 1.786-7.135.412-10.667s-6.021-6.894-8.972-5.459"/><path fill="#FFBE9D" d="m93.733 159.343-5.57 34.39c-1.003 6.422-5.218 12.634-15.293 10.526-8.61-2.488-7.968-8.68-6.844-16.316 0 0-9.473-2.459-8.62-12.092.402-4.657 2.007-14.17 3.603-22.759a17.99 17.99 0 0 1 19.508-14.661l.933.09c9.944 1.636 14.149 10.928 12.282 20.822"/><path fill="#EB996E" d="M66.027 187.943c4.44.434 8.911-.412 12.885-2.439 0 0-3.773 7.145-13.276 5.319z"/><path fill="#263238" d="M62.896 161.511a1.375 1.375 0 0 0 1.184 1.515 1.3 1.3 0 0 0 1.002-.219 1.3 1.3 0 0 0 .534-.875 1.375 1.375 0 0 0-1.185-1.515 1.311 1.311 0 0 0-1.535 1.094M62.595 158.019c.15.201 1.274-.472 2.75-.311s2.488 1.003 2.669.833c.18-.171-.06-.412-.492-.803a3.8 3.8 0 0 0-2.117-.893 3.54 3.54 0 0 0-2.208.481c-.492.302-.672.603-.602.693M76.353 163.638a1.373 1.373 0 0 0 1.184 1.516 1.32 1.32 0 0 0 1.001-.219 1.32 1.32 0 0 0 .535-.875 1.374 1.374 0 0 0-1.185-1.515 1.31 1.31 0 0 0-1.535 1.093M76.816 159.755c.16.19 1.274-.472 2.75-.321 1.474.15 2.488 1.003 2.668.843.181-.161-.06-.412-.491-.803a3.8 3.8 0 0 0-2.118-.893 3.64 3.64 0 0 0-2.207.471c-.492.301-.673.613-.603.703M70.634 170.181a9.5 9.5 0 0 0-2.359-.682c-.37-.071-.722-.181-.762-.452.01-.392.136-.772.361-1.094.452-.873.923-1.796 1.405-2.759 2.007-3.934 3.422-7.185 3.261-7.266a51.3 51.3 0 0 0-3.833 7.025l-1.365 2.79a2.24 2.24 0 0 0-.34 1.455.94.94 0 0 0 .561.622q.308.108.632.15c.801.17 1.62.241 2.439.211M77.296 153.925c.1.421 1.595.381 3.311.762 1.716.382 3.07 1.004 3.332.663.12-.171-.08-.572-.612-1.004a5.9 5.9 0 0 0-2.385-1.114 5.9 5.9 0 0 0-2.633.03c-.702.181-1.053.472-1.013.663M63.568 153.794c.231.371 1.285.12 2.51.231 1.223.11 2.237.451 2.508.12.12-.16 0-.512-.432-.873a3.64 3.64 0 0 0-4.014-.281c-.491.301-.672.632-.572.803"/><path fill="#FFBE9D" d="M92.237 166.388c.17-.06 6.804-1.294 5.93 5.258-.872 6.553-7.274 4.336-7.254 4.145s1.324-9.403 1.324-9.403"/><path fill="#EB996E" d="M93.241 173.573s.1.09.281.211c.258.149.562.195.853.13a2.86 2.86 0 0 0 1.646-2.368 3.7 3.7 0 0 0-.1-1.676 1.32 1.32 0 0 0-.743-1.004.57.57 0 0 0-.713.221c-.12.171-.09.311-.13.311s-.12-.13 0-.391a.7.7 0 0 1 .311-.371.88.88 0 0 1 .652-.091 1.63 1.63 0 0 1 1.004 1.174c.203.608.255 1.255.15 1.887a3.01 3.01 0 0 1-2.007 2.609 1.24 1.24 0 0 1-1.003-.321c-.21-.161-.221-.311-.2-.321"/><path fill="#263238" d="M61.793 144.171a12.5 12.5 0 0 1 4.506-4.245 21.57 21.57 0 0 1 12.864-3.201 17.54 17.54 0 0 1 11.771 5.86 18.5 18.5 0 0 1 4.124 9.804 27.2 27.2 0 0 1-1.003 10.667 8.1 8.1 0 0 1-2.218 4.104c-.752.643-2.007 1.004-2.679.322a2.64 2.64 0 0 1-.612-1.596c-.753-5.198-1.455-10.787.893-15.484a15.2 15.2 0 0 0-4.104-4.616 7.83 7.83 0 0 0-5.89-1.415c-3.011.602-5.118 3.272-7.657 5.018a13.94 13.94 0 0 1-12.614 1.535z"/><path fill="#EB996E" d="M69.328 174.165a6.5 6.5 0 0 0 .492 1.806 2.25 2.25 0 0 0 1.354 1.225 2 2 0 0 0 1.837-.552c.46-.489.755-1.111.843-1.776.1-.603 0-1.355-.592-1.556a1.7 1.7 0 0 0-.743 0l-3.352.612"/><path fill="#263238" d="M70.032 176.965c.549.147 1.12.195 1.686.14a2.37 2.37 0 0 0 1.475-.873 2.5 2.5 0 0 0 .461-2.007 2 2 0 0 0-.17-.511c-.09-.161-.07-.151-.21-.151q-.27.03-.533.09l-.552.101-1.906.321a6 6 0 0 1-1.776.15 5.4 5.4 0 0 1 1.695-.542c.542-.14 1.174-.281 1.887-.441l.542-.121c.2 0 .351-.09.612-.11a.77.77 0 0 1 .462.11q.178.14.28.342.156.31.221.652a2.92 2.92 0 0 1-.612 2.448 2.7 2.7 0 0 1-1.826.934 2.5 2.5 0 0 1-1.345-.211c-.29-.161-.411-.291-.391-.321"/><path fill="#FFBE9D" d="m45.596 160.026-1.556-.422-24.214 23.532-19.648 2.368s.2-5.93 7.576-13.497c6.623-6.763 22.027-14.791 27.245-18.946a8 8 0 0 1 2.258-1.344z"/><path fill="#FFBE9D" d="m45.606 148.827 2.479-.703 5.84-2.769 6.643 2.478s-.15 2.268-1.896 1.646l6.964 2.298s-.572 1.656-.883 1.766 4.084.472 4.084.472 0 2.238-4.165 2.197c-4.164-.04-5.78-.752-5.78-.752l-3.341.893.13 2.007 4.556-.07-.21 2.549a54 54 0 0 1-5.861.903s-7.024.1-8.931-.823-4.335-2.238-4.335-2.238l-3.643-6.944z"/><path fill="#EB996E" d="M51.877 150.001c0 .06.391-.13 1.004-.411q1.231-.53 2.358-1.255h-.301l.27.171c.83.53 1.765.872 2.74 1.003.743.101 1.204 0 1.204 0a15 15 0 0 1-3.672-1.405l-.251-.16-.15-.1-.151.11c-.813.562-1.666 1.003-2.228 1.355-.562.351-.873.642-.823.692M54.015 153.543s.452.161 1.124-.13 1.425-1.004 2.379-1.405h-.241q.643.433 1.344.762a9.5 9.5 0 0 0 3.753.924c.535.068 1.078.01 1.586-.171a17 17 0 0 1-5.118-1.224 10 10 0 0 1-1.284-.713l-.13-.07h-.111c-1.084.552-1.716 1.285-2.308 1.586s-.994.361-.994.441M47.794 155.721c0 .08.512-.07 1.304-.06a5.44 5.44 0 0 1 2.89.873c.57.368 1.06.849 1.435 1.415l.06.09h.09c.774.22 1.576.318 2.38.291a7.6 7.6 0 0 0-2.289-.733l.15.101a4.75 4.75 0 0 0-1.535-1.616 5.02 5.02 0 0 0-3.19-.803c-.864.101-1.325.392-1.295.442"/><path fill="#EB996E" d="M40.9 158.661q.091.08.2.131l.633.361 2.428 1.314a7.8 7.8 0 0 0 1.837.823q1.166.271 2.358.382c1.706.17 3.652.24 5.81.24l2.619-.271c.969-.08 1.93-.245 2.87-.491h.1v-.131c.14-.873.291-1.826.452-2.799l.05-.281h-.28l-4.336.18.26.221c0-.612-.09-1.295-.13-2.007l-.19.261 3.351-.893h-.17c1.627.495 3.317.751 5.017.762.882.056 1.767.012 2.64-.13a3.4 3.4 0 0 0 2.378-1.445c.151-.264.24-.559.26-.863v-.231h-.25c-1.004-.09-2.078-.18-3.091-.291l-.743-.1h-.16v.05a.21.21 0 0 1 .06.221c0 .09-.18.21-.14.17a.6.6 0 0 0 .16-.1q.164-.171.271-.381.348-.692.602-1.425l.09-.251-.25-.08-7.025-2.288-.16.461c.282.104.585.139.883.101.305-.055.582-.214.782-.452.336-.437.532-.965.562-1.515v-.171l-.18-.07-6.653-2.449h-.16l-5.831 2.8-2.439.703-2.127.752-3.372 1.224-2.117.783a3.8 3.8 0 0 0-.723.301q.383-.084.753-.211l2.148-.692 3.401-1.134 2.128-.712 2.448-.663 5.86-2.739h-.17l6.643 2.498-.16-.24a2.28 2.28 0 0 1-.452 1.234 1 1 0 0 1-1.124.201l-.16.471 6.954 2.308-.16-.331a9 9 0 0 1-.573 1.345q-.065.135-.16.251a.3.3 0 0 1 .06.12c-.1-.261 0-.07-.07-.12h-.07a.267.267 0 0 0-.02.391c.08.08.06.05.08.06h.3l.773.101c1.004.12 2.007.21 3.1.301l-.23-.251a1.6 1.6 0 0 1-.19.592 2.9 2.9 0 0 1-2.008 1.194 11 11 0 0 1-2.528.12 17.3 17.3 0 0 1-4.827-.702h-.17l-3.342.903h-.201v.201c0 .692.09 1.375.13 2.007v.241h.241l4.325-.201-.24-.271c-.151 1.003-.301 1.937-.432 2.81l.12-.161c-.896.225-1.809.382-2.729.472l-2.6.291c-2.136 0-4.073 0-5.77-.161a17 17 0 0 1-2.327-.321 8 8 0 0 1-1.806-.763l-2.47-1.224-.651-.301c.11-.02.04-.05.03-.04"/><path fill="#EB996E" d="M49.29 151.105a7.7 7.7 0 0 0 2.578 2.619 7.9 7.9 0 0 0 3.322 1.586c.06-.141-1.405-.853-3.01-2.007-1.606-1.154-2.77-2.298-2.89-2.198"/><path fill="#FFB64F" d="m.388 184.772 19.438-1.636 22.92 8.721 5.017 3.07-7.145 24.505s-35.915-21.163-37.44-22.969a13.05 13.05 0 0 1-2.79-11.691"/><path fill="#FFB64F" d="m104.151 202.784 6.683 4.145L95.4 267.69l2.8 35.032c-4.014 3.472-14.049 6.452-33.115 5.368s-31.79-9.382-31.79-9.382l1.826-36.035 4.345-40.662 4.867-27.806 14.691 1.063 5.73-3.391 2.569 1.284 3.291 9.132 8.57-6.202 10.035-4.827 3.663 6.834z"/><path fill="#263238" d="M44.332 201.279a8 8 0 0 0-.522 1.345c-.32.883-.722 2.167-1.204 3.773a124 124 0 0 0-3.01 12.704 124 124 0 0 0-1.586 12.945 74 74 0 0 0-.17 3.944 7 7 0 0 0 0 1.455q.143-.716.17-1.445c.09-1.004.2-2.338.341-3.924.311-3.311.843-7.887 1.736-12.885a162 162 0 0 1 2.81-12.694c.412-1.535.763-2.82 1.004-3.813.195-.451.34-.922.431-1.405M73.353 201.761c.489-.084.959-.257 1.384-.512a8.8 8.8 0 0 0 3.01-2.599l-.36-.1a34 34 0 0 0 1.796 8.78l.11.321.281-.19.703-.492a560 560 0 0 0 8.81-6.161l2.63-1.917q.504-.329.923-.763a5.2 5.2 0 0 0-1.004.592l-2.72 1.787c-2.297 1.515-5.438 3.652-8.89 6.021l-.713.481.402.131a36.8 36.8 0 0 1-1.887-8.64v-.542l-.31.441a9.4 9.4 0 0 1-2.82 2.639c-.874.492-1.365.673-1.345.723M59.615 196.352a32 32 0 0 0 3.262 3.703l.18.191.18-.201a22.4 22.4 0 0 1 2.178-2.218c.422-.361.833-.702 1.245-1.003l.612-.452a1 1 0 0 1 .14-.02l.09.151.934 2.388c.254.754.59 1.477 1.003 2.157a10.3 10.3 0 0 0-.642-2.288c-.26-.752-.542-1.565-.833-2.428a.7.7 0 0 0-.35-.431.63.63 0 0 0-.583.09l-.642.461c-.432.312-.863.663-1.285 1.004-.8.702-1.538 1.471-2.207 2.298h.361a32 32 0 0 0-3.643-3.402"/><path fill="#455A64" d="M63.589 305.461a41.57 41.57 0 0 0-36.154 10.577 41.57 41.57 0 0 0-12.761 35.442 41.564 41.564 0 0 0 58.759 32.524 41.57 41.57 0 0 0 23.695-42.871 41.565 41.565 0 0 0-33.58-35.662zm-14.822 78.954a38.74 38.74 0 0 1-31.533-39.28 38.744 38.744 0 1 1 31.533 39.28"/><path fill="#455A64" d="M55.992 389.895a43.77 43.77 0 0 0 43.66-39.891 43.774 43.774 0 0 0-35.927-46.976A43.772 43.772 0 0 0 41 387.225a43.5 43.5 0 0 0 14.992 2.67m-.09-80.39A36.79 36.79 0 0 1 92.56 349.69a36.8 36.8 0 0 1-14.475 25.971 36.8 36.8 0 0 1-28.946 6.788 36.94 36.94 0 0 1-26.563-20.622 36.807 36.807 0 0 1 33.326-52.322"/><path fill="#455A64" d="m157.053 305.732-.371-.903c-.783-1.937-2.509-3.071-3.853-2.519l-60.751 24.716c-.302.12-.402.572-.231 1.003l2.589 6.363c.18.431.562.682.863.561l60.751-24.766c1.345-.551 1.796-2.558 1.003-4.455"/><path fill="#FFBE9D" d="m100.316 235.729 7.306 24.174-3.663 49.271 10.777 1.355s12.343-41.926 11.119-49.512c-1.224-7.587-6.262-29.684-6.262-29.684z"/><path fill="#FFBE9D" d="m103.989 308.823-5.017 8.57-3.131 8.027 4.686-1.836s2.007 9.694 2.82 9.945 3.07-.532 2.84-2.389a3.06 3.06 0 0 0 2.558.843c1.425-.291 1.767-1.214 1.606-3.01 0 0 1.656 1.344 2.649.512a3.013 3.013 0 0 0 .893-2.308s2.158.18 2.459-.934c.317-1.83.357-3.697.12-5.539-.251-1.224-1.294-6.202-1.294-6.202l-.482-4.013z"/><path fill="#EB996E" d="M105.164 325.551c.391.872.645 1.8.752 2.75a9.4 9.4 0 0 1 .311 2.84 9.1 9.1 0 0 1-.752-2.75 9.4 9.4 0 0 1-.311-2.84M109.558 324.437a5.75 5.75 0 0 1 .672 2.187c.223.741.302 1.518.231 2.288a6.2 6.2 0 0 1-.672-2.197 6.2 6.2 0 0 1-.231-2.278M113.231 323.403c.218.609.334 1.25.342 1.897.17 1.003.441 1.856.311 1.906a3.1 3.1 0 0 1-.753-1.836 3.57 3.57 0 0 1 .1-1.967M100.196 320.784c.388.856.658 1.761.803 2.69.29.894.466 1.821.522 2.759a7.4 7.4 0 0 1-.954-2.649 7.7 7.7 0 0 1-.371-2.8"/><path fill="#FFB64F" d="M126.448 277.293c0-.823 3.371-12.303 2.348-18.254-1.024-5.95-13.266-46.16-14.912-49.03a12.53 12.53 0 0 0-5.228-4.435 20 20 0 0 0-9.744 12.232c-2.459 8.821-2.459 19.889-2.459 19.889l9.845 24.415-1.174 13.868z"/><path fill="#263238" d="M97.076 236.893c.1 0-.09-1.806 0-4.697.062-1.68.226-3.356.492-5.017a40.8 40.8 0 0 1 3.733-11.791 42 42 0 0 1 2.508-4.405c1.586-2.429 2.77-3.783 2.7-3.844a5.8 5.8 0 0 0-.883.914 27 27 0 0 0-2.088 2.689 37 37 0 0 0-2.629 4.395 38.8 38.8 0 0 0-3.783 11.942 39 39 0 0 0-.381 5.117c-.016 1.15.041 2.3.17 3.442q.02.636.161 1.255M97.707 242a18 18 0 0 0 1.004 3.011c.712 1.856 1.786 4.375 3.01 7.125l3.171 7.024q.58 1.499 1.365 2.9a18 18 0 0 0-1.004-3.01c-.712-1.857-1.786-4.375-3.01-7.125l-3.171-7.024A23 23 0 0 0 97.707 242M105.725 263.054a46 46 0 0 1 6.744-2.93 45 45 0 0 1 7.245-1.275 6.9 6.9 0 0 0-2.188-.12 21.7 21.7 0 0 0-5.208.893 21.2 21.2 0 0 0-4.837 2.137 6.9 6.9 0 0 0-1.756 1.295"/><path fill="#fff" d="M41.643 332.204c-.09.111 7.817 7.025 17.671 15.464s17.912 15.173 18.003 15.052c.09-.12-7.817-7.024-17.672-15.453-9.854-8.43-17.912-15.173-18.002-15.063M31.468 332.204c-.1.111 6.562 6.021 14.881 13.136 8.32 7.115 15.123 12.855 15.223 12.744.1-.11-6.573-6.021-14.882-13.136s-15.132-12.854-15.222-12.744"/><path fill="#263238" d="M16.485 346.303s0-.211.06-.632.06-1.064.12-1.877c0-.411 0-.873.08-1.375.08-.501.16-1.053.251-1.655.09-.602.19-1.235.301-1.917s.341-1.385.512-2.148a38 38 0 0 1 4.375-10.466 39.3 39.3 0 0 1 9.985-11.139l1.696-1.264c.602-.391 1.224-.743 1.846-1.124s1.235-.803 1.917-1.114l2.007-1.003 1.003-.492 1.094-.391 2.208-.803c.753-.251 1.535-.412 2.308-.622a20 20 0 0 1 2.378-.542 36 36 0 0 1 4.957-.572c.843 0 1.696-.111 2.56-.1l2.588.14c.442 0 .883 0 1.315.08l1.304.201c.873.151 1.767.251 2.64.431 1.774.397 3.52.91 5.228 1.536a41 41 0 0 1 5.107 2.248c.833.451 1.626 1.003 2.449 1.455.401.261.823.481 1.204.762l1.154.873a35.7 35.7 0 0 1 8.35 8.349l.902 1.205.793 1.294.783 1.295q.416.638.732 1.334l1.325 2.76c.361 1.003.712 1.936 1.064 2.91a38.8 38.8 0 0 1 0 24.726c-.362 1.003-.713 1.937-1.064 2.9s-.893 1.846-1.335 2.769l-.33.683-.402.652-.783 1.295-.793 1.294-.903 1.204a45 45 0 0 1-3.823 4.506 46 46 0 0 1-4.446 3.783l-1.154.863c-.391.291-.812.502-1.214.763-.823.481-1.615 1.003-2.438 1.455a40 40 0 0 1-5.118 2.248 41 41 0 0 1-5.228 1.535c-.873.181-1.766.281-2.64.431l-1.304.201c-.442.06-.873.05-1.315.08l-2.588.141c-.864 0-1.717-.07-2.56-.1a36 36 0 0 1-4.957-.572 19 19 0 0 1-2.378-.542c-.773-.211-1.565-.372-2.308-.612l-2.208-.813-1.093-.392-1.004-.491-2.007-1.004c-.682-.311-1.284-.752-1.916-1.114a37 37 0 0 1-1.847-1.124l-1.696-1.264a39.1 39.1 0 0 1-9.984-11.139 38 38 0 0 1-4.436-10.396c-.17-.762-.431-1.455-.512-2.147-.08-.693-.21-1.325-.3-1.917-.091-.592-.201-1.144-.252-1.646-.05-.501-.06-1.003-.08-1.384q-.09-1.204-.12-1.867c0-.421-.06-.642-.06-.642v.642c0 .422 0 1.064.07 1.877q0 .622.06 1.384c0 .502.14 1.054.22 1.656l.282 1.927q.196 1.096.501 2.167a37.1 37.1 0 0 0 4.315 10.567 39.3 39.3 0 0 0 10.035 11.279l1.706 1.285c.602.391 1.234.762 1.857 1.144.622.381 1.244.813 1.926 1.134l2.057 1.003 1.004.492 1.104.411 2.227.813c.753.261 1.546.422 2.339.632.785.241 1.587.425 2.398.552 1.656.316 3.333.514 5.017.592.863 0 1.716.121 2.59.111l2.629-.131c.431 0 .883 0 1.324-.08l1.325-.201c.883-.15 1.776-.251 2.669-.431a41 41 0 0 0 5.288-1.546 39 39 0 0 0 5.188-2.268c.833-.451 1.636-1.003 2.469-1.465.411-.261.843-.481 1.234-.772l1.134-.893a44 44 0 0 0 4.506-3.824 43 43 0 0 0 3.893-4.596l.924-1.214.792-1.314.803-1.315.402-.652.34-.703 1.386-2.799 1.083-2.941a39.36 39.36 0 0 0 0-25.087l-1.083-2.92c-.452-.933-.904-1.866-1.345-2.8a12 12 0 0 0-.743-1.354l-.802-1.315-.803-1.304-.913-1.215a45 45 0 0 0-3.894-4.596 44 44 0 0 0-4.506-3.823l-1.174-.873a14 14 0 0 0-1.224-.783c-.833-.481-1.636-1.003-2.469-1.465a41 41 0 0 0-5.188-2.268 41 41 0 0 0-5.288-1.545c-.893-.181-1.786-.281-2.67-.432l-1.324-.2c-.441-.05-.883-.05-1.324-.081l-2.63-.13c-.862 0-1.726.08-2.578.11a35.6 35.6 0 0 0-5.018.592q-1.216.207-2.398.552c-.783.211-1.576.382-2.338.633l-2.228.812-1.094.412-1.003.502-2.007 1.003q-.998.512-1.937 1.124c-.622.381-1.255.753-1.857 1.144l-1.706 1.284a39.3 39.3 0 0 0-10.034 11.28 37.1 37.1 0 0 0-4.315 10.566c-.171.763-.422 1.475-.502 2.168-.08.692-.19 1.334-.281 1.927-.09.592-.18 1.154-.22 1.655s0 1.004-.061 1.385c0 .813 0 1.435-.07 1.877s-.07.642-.07.642"/><path fill="#263238" d="M31.045 367.246a14 14 0 0 0-1.004-1.345 37 37 0 0 1-2.508-3.763 34.63 34.63 0 0 1-3.01-28.72 41 41 0 0 1 1.675-4.204q.404-.732.692-1.516s-.1.111-.25.352-.372.592-.623 1.073a30.6 30.6 0 0 0-1.836 4.175 33.52 33.52 0 0 0 3.01 29.031 32 32 0 0 0 2.67 3.703c.341.411.642.712.833.923s.33.301.35.291M33.122 370.848c-.07.131.24.442.692.703s.883.361.953.24c.07-.12-.24-.441-.692-.702s-.883-.361-.953-.241"/><path fill="#fff" d="M84.863 363.192q.152-.22.241-.472c.14-.311.361-.772.592-1.395a36.5 36.5 0 0 0 1.596-5.358 38.66 38.66 0 0 0-9.293-34.38 35 35 0 0 0-4.074-3.833c-.501-.421-.933-.702-1.214-.913s-.431-.301-.451-.281.541.492 1.535 1.355a41 41 0 0 1 3.933 3.913 39.5 39.5 0 0 1 9.192 34.079 42 42 0 0 1-1.445 5.348c-.391 1.244-.652 1.927-.612 1.937M61.57 314.011c1.515.47 3.115.604 4.687.391a5.4 5.4 0 0 0-2.318-.461 5.5 5.5 0 0 0-2.368.07"/></svg>