<svg xmlns="http://www.w3.org/2000/svg" width="553" height="369" fill="none"><path fill="#ECF2FA" d="M384.609 196.017c-34.572 9.574-99.88 76.362-59.399 107.686s161.451-135.977 59.399-107.686"/><path fill="#101C3A" d="m184.159 33.2-.503-.1 1.524-7.188a25 25 0 0 1-6.311-4.83l.403-.36a24.2 24.2 0 0 0 6.325 4.816l.187.086z"/><path fill="#101C3A" d="M219.981 25.754c20.658 25.473 36.399 22.713 23.691 51.033-12.708 28.319 34.3 13.599 31.712 42.235s-24.797 26.58-4.456 50.4-22.598 67.334-22.598 67.334H120.633s-45.93-21.663-33.222-57.832-9.401-36.528 21.218-61.814c19.565-16.115 1.582-25.876 1.582-49.452 0-26.048 25.875-38.253 37.764-35.737 11.888 2.516 37.592-48.603 72.006-6.167"/><path fill="#364AC0" d="M234.386 265.938s8.079 49.035 23.748 68.542l-154.263 1.668s21.276-42.896 22.009-67.694z"/><path fill="#101C3A" d="m103.139 336.608.316-.661c.216-.432 21.261-43.127 21.966-67.565v-.431h.431l108.923-2.458.071.373c0 .489 8.237 49.15 23.648 68.327l.589.719h-.934zm23.173-67.723c-.877 23.001-19.062 61.326-21.721 66.803l152.624-1.653c-14.477-18.803-22.441-63.037-23.217-67.68z"/><path fill="#5970FF" d="M208.482 150.274c-7.763 6.627-14.692 30.116 3.22 47.439 17.912 17.322 68.039 49.135 85.879 54.123 25.775 7.188 66.688-13.053 49.567-52.096-11.041-25.172-73.574-46.188-95.913-53.707-22.34-7.518-32.776-4.269-42.753 4.241"/><path fill="#101C3A" d="m285.347 201.666 1.625-.618c-3.522-9.287-14.16-19.939-14.62-20.384l-1.222 1.236c.115.158 10.825 10.868 14.217 19.766"/><path fill="#5970FF" d="M149.442 173.332c.388-9.632-11.501-29.455-34.918-28.162-23.418 1.294-81.365 3.738-96.23 12.938-21.562 13.24-29.915 66.415 8.08 79.568 24.438 8.482 79.065-21.347 98.615-31.999 19.551-10.652 23.95-19.997 24.453-32.345"/><path fill="#364AC0" d="M79.19 174.008a112.2 112.2 0 0 0 24.28-5.607l-.561-1.552c-.201.072-20.428 7.345-33.567 5.448l-.23 1.624c3.345.419 6.726.448 10.078.087"/><path fill="#5970FF" d="M256.941 233.766c3.076-9.028 1.783-34.731 0-46.993-1.437-14.217.158-36.039-14.03-43.558-6.397-3.392-34.228-4.988-46.692-8.524H164.55c-9.804 2.501-33.653 7.302-42.724 11.974-6.08 3.134-11.083 5.506-14.548 15.9-3.795 19.766-4.571 35.234-7.82 55.058-1.869 10.623-.158 19.047 6.311 34.501 9.358 26.321-13.398 67.679-13.398 67.679s94.806 37.621 176.099-.747c0 .014-23.748-49.38-11.529-85.29"/><path fill="#364AC0" d="m98.898 307.541-1.236-.518c5.434-12.937 13.657-37.376 7.475-54.626-6.641-15.813-8.18-24.352-6.34-34.846 1.438-8.625 2.459-17.251 3.451-25.675s2.012-16.848 3.407-25.387l1.322.216c-1.437 8.51-2.415 17.064-3.407 25.329-.991 8.266-2.027 17.007-3.45 25.747-1.797 10.206-.273 18.501 6.268 34.141 6.023 16.877-.762 39.562-7.49 55.619"/><path fill="#101C3A" d="M257.775 291.196c-4.241-15.813-7.949-38.612-1.437-57.645 2.875-8.424 1.912-32.403.143-45.743l1.323-.173c1.783 13.47 2.746 37.722-.201 46.347-6.369 18.688-2.703 41.257 1.437 56.855z"/><path fill="#FFAE99" d="M196.377 107.521v27.601c13.168 34.084-16.23 76.607-16.23 76.607s-27.572-46.002-15.065-76.722v-39.72a276 276 0 0 0 31.295 12.234"/><path fill="#101C3A" d="m137.451 141.16-.345-1.538c.949-.216 23.231-5.377 27.932-5.377v1.567c-4.514 0-27.342 5.29-27.587 5.348"/><path fill="#364AC0" d="M219.694 139.506c-14.62-2.185-23.504-4.025-23.59-4.053l.316-1.524c.086 0 8.941 1.854 23.504 4.025z"/><path fill="#FFAE99" d="M311.425 99.6c0 5.564 3.018 6.412 2.745 20.399 2.099 23.806-19.924 88.97-19.277 97.983 2.084 28.952 48.646 29.383 54.253 1.926 4.471-21.865-7.705-77.541-15.109-98.601-3.867-10.939 9.258-12.478 12.694-18.113 3.435-5.635-35.321-7.26-35.306-3.594"/><path fill="#101C3A" d="M193.086 118.49c2.128-2.07 4.313-10.264 6.641-11.041v-6.972a307 307 0 0 1-34.199-12.837v23.748c1.61 1.28 4.313 8.41 7.677 10.839 5.664 4.126 13.067 2.933 19.881-3.737"/><path fill="#FFAE99" d="M206.828 74.458c-1.107-8.54-1.552-14.376-15.281-19.09-14.677-4.975-27.644 1.437-32.618 16.07-1.71 5.061 1.438 27.846 3.393 34.948 1.337 4.887 16.56 13.455 16.56 13.455.834 1.222 6.987 1.193 7.835-.086 0 0 14.792-9.977 16.014-13.269 2.573-6.886 4.428-29.498 4.097-32.028"/><path fill="#101C3A" d="m180.895 97.415-.632-1.265s3.824-1.955 3.019-3.737c-2.416-5.348-1.438-12.608-1.438-12.938l1.438.201c0 .072-.964 7.188 1.279 12.133 1.337 3.062-3.465 5.506-3.666 5.606M164.335 77.577l-.791-1.179c7.087-4.772 12.348-.402 12.392-.359l-.906 1.078c-.259-.158-4.6-3.694-10.695.46M199.166 77.922c-.158-.186-3.924-4.312-10.637-1.15l-.604-1.265c7.705-3.665 12.262 1.438 12.305 1.438zM179.874 104.545a22 22 0 0 1-6.541-.862l.446-1.337a21.2 21.2 0 0 0 6.095.791c3.68 0 10.681-2.2 10.753-2.214l.431 1.337c-.302.1-7.288 2.285-11.184 2.285M170.4 52.665s23.59 19.09 40.122 23.446c0 0 4.126-36.973-40.122-23.446M167.067 82.997a3.31 3.31 0 0 0 3.943 3.259 3.31 3.31 0 0 0 2.605-2.594 3.303 3.303 0 0 0-3.241-3.957 3.306 3.306 0 0 0-3.307 3.292M190.024 82.997a3.307 3.307 0 1 0 5.135-2.74 3.306 3.306 0 0 0-5.135 2.74"/><path fill="#FFAE99" d="M120.935 90.673s-8.424 20.658-10.782 23.547c-3.507 4.313-6.368 3.105-14.936 14.174-16.56 17.251-40.25 81.797-46.432 88.409-19.78 21.233-56.323-7.619-43.472-32.531 10.25-19.838 54.627-55.561 73.617-67.32 9.876-6.096 4.413-9.186 5.261-15.727.849-6.541 37.908-18.113 36.744-10.552"/><path fill="#FFAE99" d="M103.082 117.44s4.514 4.054 10.365-.215 8.481-5.75 12.938-6.455c4.456-.704.603-7.978-9.948-4.456s-14.002 2.631-13.355 11.126"/><path fill="#D17F80" d="M116.235 106.788a3.5 3.5 0 0 0-1.021.819 3.15 3.15 0 0 0-.647 1.151 3.5 3.5 0 0 0-.115.661q.01.335.086.661.077.324.23.618.074.152.173.288l.187.258c-.072-.201-.187-.388-.245-.589a3.8 3.8 0 0 1-.186-1.222q.025-.308.115-.604c.122-.398.312-.772.56-1.107.253-.341.542-.655.863-.934"/><path fill="#390D9F" d="m82.395 117.857 3.824-1.437-2.688-6.613-3.824 1.438a3.52 3.52 0 0 0-1.958 1.883 3.5 3.5 0 0 0-.026 2.717 3.64 3.64 0 0 0 4.672 2.012"/><path fill="#101C3A" d="M77.593 112.811a3.68 3.68 0 0 1 1.926-1.71l4.025-1.567 2.876 7.015-4.026 1.567a3.863 3.863 0 0 1-4.959-2.128 3.74 3.74 0 0 1 0-2.875q.056-.162.158-.302m5.75-2.76-3.608 1.438a3.24 3.24 0 0 0-1.848 1.76 3.25 3.25 0 0 0-.006 2.552 3.42 3.42 0 0 0 4.384 1.898l3.608-1.438z"/><path fill="#390D9F" d="m134.435 90.96-6.527 2.53 1.984 4.874 6.44-2.501z"/><path fill="#101C3A" d="m127.619 93.362 6.943-2.689 2.056 5.32-6.785 2.659zm6.685-2.128-6.11 2.372 1.826 4.47 6.038-2.342z"/><path fill="#364AC0" d="M169.683 106.371a24.986 24.986 0 0 1-32.086-13.829 24.037 24.037 0 0 1 5.57-26.516 24 24 0 0 1 8.044-5.11 24.984 24.984 0 0 1 32.086 13.83 24.037 24.037 0 0 1-.142 18.682 24.05 24.05 0 0 1-13.472 12.943" opacity=".3" style="mix-blend-mode:screen"/><path fill="#390D9F" d="m132.479 89.365-1.998.79a1.15 1.15 0 0 0-.666.626 1.17 1.17 0 0 0-.01.913l2.731 6.698a1.21 1.21 0 0 0 1.567.676l2.013-.776z"/><path fill="#101C3A" d="M129.647 90.601c.162-.302.427-.537.747-.661l2.2-.848 3.809 9.33-2.214.862a1.435 1.435 0 0 1-1.868-.805l-2.717-6.699a1.34 1.34 0 0 1 0-1.078.3.3 0 0 1 .043-.1m2.717-.949-1.811.705a.975.975 0 0 0-.547 1.265l2.732 6.685a1.005 1.005 0 0 0 1.293.56l1.797-.704z"/><path fill="#029491" d="M125.133 91.665 84.12 107.607a5.23 5.23 0 0 0-2.962 6.886 5.43 5.43 0 0 0 6.987 3.005l41.013-15.943a1.87 1.87 0 0 0 1.05-1.004 1.85 1.85 0 0 0 .013-1.454l-2.587-6.354a1.94 1.94 0 0 0-2.501-1.078"/><path fill="#FF7761" d="M193.041 142.494c3.32-3.22 6.684-15.971 10.336-17.164v-10.853c-33.064-10.523-53.189-19.982-53.189-19.982v36.959c2.515 1.984 6.756 13.067 11.945 16.862 8.669 6.412 20.198 4.557 30.908-5.822"/><path fill="#FFAE99" d="M214.317 73.996c-1.725-13.283-2.429-22.455-23.791-29.7-22.828-7.734-42.997 2.156-50.731 24.984-2.674 7.893 2.242 43.328 5.261 54.383 2.085 7.619 25.775 20.93 25.775 20.93 1.294 1.927 10.883 1.869 12.191-.129 0 0 23-15.511 24.912-20.643 3.997-10.81 6.886-45.887 6.383-49.825"/><path fill="#101C3A" d="M215.96 30.998s-56.814 6.79-83.133 23.423c0 0 50.553 54.317 83.133-23.423M173.95 109.661l-.963-1.97s5.937-3.047 4.687-5.75c-3.752-8.323-2.229-19.608-2.157-20.125l2.171.302c0 .115-1.437 11.14 1.998 18.889 2.113 4.744-5.333 8.539-5.736 8.654"/><path fill="#390D9F" d="M171.366 110.511a28.445 28.445 0 0 0 18.23-26.32c.029-3.792-.7-7.55-2.144-11.056a29.53 29.53 0 0 0-37.923-16.345 28.43 28.43 0 0 0-18.23 26.321c-.03 3.791.699 7.55 2.144 11.055a29.54 29.54 0 0 0 37.923 16.345M151.24 60.974a24.956 24.956 0 0 1 32.057 13.814 24.028 24.028 0 0 1-13.585 31.626A24.953 24.953 0 0 1 137.655 92.6a24.031 24.031 0 0 1 5.526-26.506 24 24 0 0 1 8.03-5.12z"/><path fill="#101C3A" d="m148.089 78.84-1.236-1.826c11.011-7.417 19.205-.632 19.291-.56l-1.437 1.667c-.273-.23-7.03-5.75-16.618.719M202.385 79.372c-.245-.273-6.11-6.728-16.561-1.768l-.934-1.984c11.989-5.75 19.076 2.228 19.148 2.314zM172.354 120.816c-3.435.05-6.859-.4-10.164-1.337l.69-2.084a34.3 34.3 0 0 0 9.474 1.222c5.75 0 16.632-3.422 16.747-3.45l.662 2.084c-.46.144-11.343 3.565-17.409 3.565M157.591 92.41a5.132 5.132 0 1 0 0-10.264 5.132 5.132 0 0 0 0 10.264M193.3 92.41a5.132 5.132 0 1 0 0-10.264 5.132 5.132 0 0 0 0 10.264"/><path fill="#EBF1FD" d="M169.683 106.371a24.986 24.986 0 0 1-32.086-13.829 24.037 24.037 0 0 1 5.57-26.516 24 24 0 0 1 8.044-5.11 24.984 24.984 0 0 1 32.086 13.83 24.037 24.037 0 0 1-.142 18.682 24.05 24.05 0 0 1-13.472 12.943" opacity=".5"/><path fill="#FFAE99" d="M112.958 92.844c-7.188-6.368-11.385 3.694-11.385 3.694-6.714-4.96-10.451 2.142-10.451 2.142a15.2 15.2 0 0 0-6.268 1.222c-1.035 1.337-1.294 8.022 4.643 9.502s6.541-3.867 6.541-3.867c2.717 4.054 7.835 4.313 9.617 3.048s.848-5.563.82-5.75a7.92 7.92 0 0 0 6.67 1.869c3.939-.733 4.025-5.75 4.039-5.937a9.2 9.2 0 0 0 3.163 3.809c1.567.935 3.234.762 5.348.676 3.55-.144 7.015-7.015-1.438-12.722s-11.299 2.314-11.299 2.314"/><path fill="#D17F80" d="M106.33 102.562a8.9 8.9 0 0 0-1.437-3.436 7.7 7.7 0 0 0-1.251-1.438 5.8 5.8 0 0 0-1.567-1.006q.727.556 1.351 1.222.624.676 1.136 1.438.509.75.935 1.552c.316.546.589 1.093.833 1.668M95.908 105.02a8.4 8.4 0 0 0-1.437-3.436 8.3 8.3 0 0 0-1.236-1.438 5.9 5.9 0 0 0-1.582-.992q.729.561 1.366 1.222.616.676 1.121 1.438c.345.489.647 1.021.949 1.553.302.531.575 1.078.82 1.653M117.168 98.767a8.4 8.4 0 0 0-1.437-3.422 7.2 7.2 0 0 0-1.236-1.437 5.8 5.8 0 0 0-1.567-1.006q.716.574 1.351 1.236.616.676 1.121 1.437.521.742.949 1.539c.316.546.546 1.049.819 1.653"/><path fill="#101C3A" d="M400.436 337.945a99 99 0 0 1-33.336 23.95 87.25 87.25 0 0 1-59.428 3.464 96 96 0 0 1-11.759-4.313 107.3 107.3 0 0 1-29.657-19.478l-.201-.187a128 128 0 0 1-17.912-20.356 121 121 0 0 1-2.386-3.464 98 98 0 0 1-4.313-6.958c-34.702-58.623-27.673-139.629 15.885-186.564 25.66-27.644 58.867-36.93 90.019-29.024q1.222.302 2.458.647h.144a81 81 0 0 1 8.453 2.875 98 98 0 0 1 14.878 7.346 121 121 0 0 1 37.606 36.844 162.7 162.7 0 0 1 25.876 73.703 123 123 0 0 1 .561 6.454c2.846 42.623-9.718 85.807-36.888 115.061"/><path fill="#029491" d="M243.399 290.075a150 150 0 0 0 6.426 13.8 142 142 0 0 0 7.662 12.938 126.3 126.3 0 0 0 21.966 25.143l.215.201c3.878 3.36 7.99 6.44 12.306 9.215a99 99 0 0 0 12.822 6.929 85.57 85.57 0 0 0 62.289 3.637 97.2 97.2 0 0 0 40.87-26.882 123 123 0 0 0 14.562-19.249 106 106 0 0 0 2.401-4.083 151.4 151.4 0 0 0 17.494-51.291 172 172 0 0 0 1.654-38.21c0-.719-.087-1.438-.158-2.171a73 73 0 0 0-.403-4.312 167 167 0 0 0-2.616-16.949 125 125 0 0 0-.892-4.054 154.8 154.8 0 0 0-21.807-51.018 121.3 121.3 0 0 0-30.03-31.526 107 107 0 0 0-5.118-3.45 98 98 0 0 0-7.835-4.442 94 94 0 0 0-15.985-6.397 90 90 0 0 0-9.272-2.185h-.087l-2.501-.388c-27.931-4.14-56.783 5.621-79.568 30.188-37.994 40.827-46.864 109.383-24.395 164.556"/><path fill="#EBF1FD" d="M268.973 304.407c33.193 49.639 90.867 56.596 128.962 15.655s41.962-114.356 8.769-163.88-90.924-56.61-128.962-15.655c-38.037 40.956-41.947 114.328-8.769 163.88"/><path fill="#029491" d="M280.458 292.044c27.658 41.329 75.773 47.166 107.471 13.053s34.961-95.295 7.303-136.567c-27.659-41.271-75.773-47.165-107.471-13.038s-34.961 95.223-7.303 136.552"/><path fill="#EBF1FD" d="M291.93 279.682c22.124 33.063 60.621 37.735 85.979 10.436 25.359-27.299 27.975-76.19 5.851-109.253s-60.621-37.736-85.979-10.437c-25.359 27.299-27.975 76.204-5.851 109.254"/><path fill="#029491" d="M303.402 267.333c16.603 24.797 45.469 28.305 64.488 7.82s20.988-57.171 4.313-81.94-45.427-28.32-64.402-7.849-20.988 57.171-4.399 81.969"/><path fill="#EBF1FD" d="M314.887 254.97c11.055 16.532 30.304 18.875 42.983 5.219 12.679-13.657 13.987-38.11 2.875-54.627s-30.318-18.875-42.997-5.218-13.973 38.095-2.861 54.626"/><path fill="#029491" d="M326.36 242.622c5.534 8.266 15.151 9.43 21.563 2.602s6.986-19.048 1.437-27.313-15.151-9.431-21.491-2.602-7.029 19.047-1.509 27.313"/><path fill="#101C3A" d="m511.487 204.009-170.335 29.355a3.55 3.55 0 0 1-4.097-2.875 3.55 3.55 0 0 1 2.875-4.097l170.407-29.355z"/><path fill="#101C3A" d="m464.709 205.676 33.581-29.081 45.584-7.835-20.873 29.556 29.556 20.873-45.584 7.849L465.6 210.88z"/><path fill="#FFAE99" d="M330.242 87.122c8.481-7.95 13.915 4.097 13.915 4.097 7.964-6.224 12.708 2.243 12.708 2.243 2.606-.11 5.206.325 7.633 1.28 1.294 1.595 1.84 9.674-5.304 11.658s-8.05-4.471-8.05-4.471c-3.149 5.003-9.33 5.477-11.501 4.011s-1.207-6.7-1.179-6.915a9.518 9.518 0 0 1-8.007 2.473c-4.801-.748-5.074-6.742-5.089-7.044a11 11 0 0 1-3.708 4.715c-1.855 1.179-3.882 1.035-6.441 1.006-4.312 0-8.726-8.28 1.438-15.453 10.163-7.174 13.585 2.4 13.585 2.4"/><path fill="#D17F80" d="M338.593 98.68a10.1 10.1 0 0 1 1.595-4.197 9 9 0 0 1 1.438-1.754 7.2 7.2 0 0 1 1.869-1.265q-.861.704-1.596 1.538a14 14 0 0 0-1.322 1.74 18 18 0 0 0-1.093 1.912c-.302.647-.618 1.322-.891 2.027M351.287 101.297c.216-1.5.761-2.934 1.596-4.198a8.8 8.8 0 0 1 1.437-1.74 7.2 7.2 0 0 1 1.869-1.264q-.861.703-1.596 1.538a13 13 0 0 0-1.322 1.74q-.6.916-1.093 1.897c-.301.66-.618 1.337-.891 2.027M325.34 94.454a10.1 10.1 0 0 1 1.595-4.198 8.5 8.5 0 0 1 1.438-1.754 7.2 7.2 0 0 1 1.869-1.265q-.861.704-1.596 1.538a13 13 0 0 0-1.322 1.74 19 19 0 0 0-1.093 1.897c-.302.662-.618 1.337-.891 2.042"/></svg>